<?xml version="1.0" encoding="UTF-8" standalone="no"?>
<!-- Created with Inkscape (http://www.inkscape.org/) -->

<svg
   xmlns:dc="http://purl.org/dc/elements/1.1/"
   xmlns:cc="http://creativecommons.org/ns#"
   xmlns:rdf="http://www.w3.org/1999/02/22-rdf-syntax-ns#"
   xmlns:svg="http://www.w3.org/2000/svg"
   xmlns="http://www.w3.org/2000/svg"
   xmlns:sodipodi="http://sodipodi.sourceforge.net/DTD/sodipodi-0.dtd"
   xmlns:inkscape="http://www.inkscape.org/namespaces/inkscape"
   id="svg3039"
   version="1.1"
   inkscape:version="0.48.2 r9819"
   width="512"
   height="512"
   sodipodi:docname="clockwork512.png">
  <metadata
     id="metadata3045">
    <rdf:RDF>
      <cc:Work
         rdf:about="">
        <dc:format>image/svg+xml</dc:format>
        <dc:type
           rdf:resource="http://purl.org/dc/dcmitype/StillImage" />
        <dc:title></dc:title>
      </cc:Work>
    </rdf:RDF>
  </metadata>
  <defs
     id="defs3043" />
  <sodipodi:namedview
     pagecolor="#ffffff"
     bordercolor="#666666"
     borderopacity="1"
     objecttolerance="10"
     gridtolerance="10"
     guidetolerance="10"
     inkscape:pageopacity="0"
     inkscape:pageshadow="2"
     inkscape:window-width="1110"
     inkscape:window-height="888"
     id="namedview3041"
     showgrid="false"
     inkscape:zoom="0.4609375"
     inkscape:cx="348.39879"
     inkscape:cy="256"
     inkscape:window-x="0"
     inkscape:window-y="0"
     inkscape:window-maximized="0"
     inkscape:current-layer="svg3039" />
  <g
     id="g3065"
     transform="matrix(1.2346502,0,0,1.1754291,-62.263242,-46.536592)">
    <path
       style="fill:#fab15b"
       d="m 255.56899,448.62555 c -0.84942,-1.21273 -2.28025,-4.47523 -3.17962,-7.25 -2.68541,-8.28518 -3.02084,-8.22896 -8.68144,1.45496 -5.30557,9.07657 -10.58229,7.77741 -12.18488,-3 -1.51555,-10.19198 -2.64838,-10.38109 -8.9858,-1.5 -3.43163,4.80901 -5.24369,6.5 -6.96533,6.5 -3.5153,0 -4.51076,-1.97469 -5.21897,-10.35284 -0.43924,-5.19623 -1.05536,-7.64716 -1.92236,-7.64716 -0.70177,0 -3.37519,2.4572 -5.94094,5.46044 -5.72238,6.69811 -8.13888,7.68629 -10.80039,4.41659 -1.67773,-2.06111 -1.85627,-3.40703 -1.34337,-10.12703 0.53335,-6.988 0.41633,-7.75 -1.1901,-7.75 -0.97988,0 -3.1033,1.38152 -4.7187,3.07005 -1.6154,1.68852 -4.37312,3.95887 -6.12827,5.04521 -2.63797,1.63275 -3.53038,1.76332 -5.14784,0.7532 -2.3805,-1.48665 -3.36166,-6.68195 -2.0956,-11.09642 1.13501,-3.95755 1.22157,-8.77204 0.15771,-8.77204 -0.4273,0 -3.17249,1.8 -6.10041,4 -5.69332,4.27787 -9.01328,4.96655 -11.57812,2.4017 -1.78685,-1.78685 -1.31069,-6.85932 1.08909,-11.60204 1.79789,-3.55321 1.74313,-6.79966 -0.11472,-6.79966 -0.81458,0 -4.4267,1.45256 -8.02691,3.22791 -5.12629,2.52788 -6.91953,2.99395 -8.26894,2.14913 -2.67925,-1.67739 -2.5977,-5.87901 0.23416,-12.0646 3.46913,-7.57759 2.53992,-8.34933 -6.53416,-5.42683 -6.74228,2.17149 -7.17376,2.1975 -9.00239,0.54261 -2.68653,-2.43127 -2.43273,-4.05921 1.66877,-10.70417 3.40646,-5.5189 3.95297,-9.52969 1.15211,-8.4553 -3.58024,1.37335 -12.77789,2.93129 -14.1644,2.39924 -0.87696,-0.33652 -2.1128,-1.74947 -2.74632,-3.13988 -1.04131,-2.28544 -0.70463,-3.1039 3.50865,-8.52941 2.56328,-3.30076 4.6605,-6.43326 4.6605,-6.96111 0,-0.52785 -3.92786,-1.08974 -8.72857,-1.24866 -8.521273,-0.28207 -8.751531,-0.35442 -9.695661,-3.04639 -0.857928,-2.44618 -0.549915,-3.18469 2.728571,-6.54216 2.03261,-2.08159 3.68798,-4.21573 3.67859,-4.74254 -0.009,-0.52681 -2.59381,-2.07424 -5.743166,-3.43873 -9.645612,-4.17905 -20.522623,-17.68497 -25.23633,-31.3358 -3.293122,-9.53684 -3.740222,-23.06504 -1.123359,-33.99029 C 76.962311,247.48044 86.0914,229.9052 99.559718,213.16012 103.65187,208.07237 107,203.42579 107,202.83438 c 0,-1.57895 -11.342956,-19.48331 -18.124192,-28.60824 -6.737723,-9.06637 -8.333388,-13.62678 -7.518793,-21.48869 1.08203,-10.443 7.160982,-20.7532 20.341735,-34.50056 15.8111,-16.49078 32.94888,-28.760494 57.04668,-40.842294 40.91277,-20.51224 83.1972,-27.595135 109.75457,-18.384545 8.02676,2.783831 10.26254,3.98427 16.28112,8.74168 6.88846,5.445013 9.67967,10.616432 12.747,23.616997 1.42246,6.028981 2.92117,11.299902 3.33046,11.713152 0.40929,0.41325 10.17104,0.90723 21.69279,1.09773 27.34145,0.45205 39.01384,3.02982 52.28712,11.54726 9.43868,6.05678 14.28532,17.28399 14.37961,33.31028 0.0317,5.38635 0.14042,9.79336 0.24162,9.79336 0.1012,0 2.31119,-0.72481 4.9111,-1.61068 4.42849,-1.50894 4.85034,-1.49915 6.67814,0.15498 2.71853,2.46024 2.47256,4.07133 -1.63842,10.73165 -3.40646,5.5189 -3.95297,9.52969 -1.15211,8.4553 3.58024,-1.37335 12.77789,-2.93129 14.1644,-2.39924 0.87696,0.33652 2.1128,1.74947 2.74632,3.13988 1.04131,2.28544 0.70463,3.1039 -3.50865,8.52941 -2.56328,3.30076 -4.6605,6.43326 -4.6605,6.96111 0,0.52785 3.92786,1.08974 8.72857,1.24866 8.53056,0.28238 8.75059,0.35174 9.69977,3.05806 0.89452,2.5505 0.51168,3.23348 -4.84898,8.65067 -3.23533,3.26945 -5.51843,6.36978 -5.14075,6.98087 0.39463,0.63852 3.77474,1.09933 8.0637,1.09933 6.49709,0 7.57131,0.26703 8.94099,2.22251 0.85618,1.22237 1.5567,2.78484 1.5567,3.47215 0,0.6873 -2.69632,3.39968 -5.99181,6.02749 -3.2955,2.62782 -5.9955,5.30845 -6,5.95695 -0.005,0.64851 2.55654,1.71154 5.69122,2.3623 13.49774,2.80212 14.55235,6.62393 3.73698,13.54244 -2.99001,1.91269 -5.43639,3.86316 -5.43639,4.33437 0,0.47121 2.92643,2.1005 6.50318,3.62064 3.57675,1.52014 7.002,3.36493 7.61167,4.09954 2.31857,2.79371 0.14915,5.80216 -6.57512,9.11805 -3.59685,1.77369 -6.53973,3.64036 -6.53973,4.14816 0,0.5078 2.89663,2.54316 6.43696,4.52302 7.72695,4.32116 9.03599,6.90865 5.17523,10.22953 -1.45424,1.25089 -4.5494,2.76198 -6.87814,3.35797 -8.59266,2.19913 -8.5929,2.07501 0.0159,8.39352 9.29199,6.81991 8.12053,10.51207 -4.00496,12.62263 -3.71523,0.64667 -6.95486,1.49921 -7.19918,1.89453 -0.24432,0.39531 2.23291,3.07526 5.50496,5.95544 9.39264,8.26774 7.87925,12.1702 -4.83516,12.46803 -7.19682,0.16858 -9.05074,1.72787 -5.40598,4.54683 2.97828,2.30349 8.19032,9.13895 8.19032,10.7414 0,0.74938 -0.84393,2.20643 -1.8754,3.2379 -1.59535,1.59535 -2.93926,1.79927 -9,1.36563 -8.50636,-0.60863 -8.71978,-0.15226 -3.6502,7.80531 4.00538,6.2871 4.26514,7.97441 1.59915,10.3871 -1.71725,1.55409 -2.70944,1.62194 -9.13643,0.62475 -3.96549,-0.61526 -7.38382,-0.94482 -7.5963,-0.73234 -0.21247,0.21247 1.00028,3.47676 2.695,7.25398 4.91088,10.94544 2.15155,13.76303 -9.23964,9.43472 -2.93506,-1.11523 -5.60396,-1.60677 -6.08925,-1.12148 -0.4853,0.4853 0.0778,4.02634 1.28478,8.0791 2.03853,6.84501 2.06026,7.31292 0.42354,9.12148 -2.26483,2.50261 -3.33091,2.41643 -9.88752,-0.79923 -7.39091,-3.62484 -8.34995,-2.72298 -6.78982,6.38502 1.90434,11.11743 -1.17061,13.07762 -10.57733,6.74276 -7.42469,-5.00008 -8.50709,-4.29902 -7.64051,4.94867 0.65275,6.96585 0.56333,7.45731 -1.63731,8.9987 -1.28028,0.89673 -2.66013,1.63043 -3.06635,1.63043 -0.40622,0 -3.22474,-2.025 -6.26337,-4.5 -3.03863,-2.475 -5.933,-4.5 -6.43192,-4.5 -1.48818,0 -2.12112,2.79951 -2.12112,9.38179 0,3.50305 -0.52398,6.74219 -1.2,7.41821 -2.87521,2.87521 -7.95823,0.46518 -12.33288,-5.84744 -1.50647,-2.17391 -3.30192,-3.95256 -3.98984,-3.95256 -0.75633,0 -1.73571,2.66832 -2.47751,6.75 -2.57647,14.17669 -6.70158,14.89342 -14.38871,2.5 -1.44985,-2.3375 -3.25698,-4.25 -4.01584,-4.25 -0.8768,0 -1.99843,2.52467 -3.07706,6.92611 -2.72888,11.13545 -7.25441,13.18243 -11.21752,5.07389 -5.68716,-11.63597 -6.86966,-12.14052 -9.80989,-4.18573 -0.95256,2.57715 -2.36302,5.69823 -3.13436,6.93573 -1.81148,2.90622 -5.76727,2.9291 -7.78735,0.045 z M 392.3533,250.08051 c -0.65683,-2.63767 -4.68882,-12.73517 -7.38714,-18.5 -0.70796,-1.5125 -1.67404,-2.75 -2.14686,-2.75 -1.01576,0 -10.42675,14.18782 -11.35871,17.12417 -0.35376,1.1146 -0.41991,2.24985 -0.14699,2.52276 0.38514,0.38514 17.15621,3.79361 20.95545,4.25889 0.42298,0.0518 0.46089,-1.14332 0.0842,-2.65582 z"
       id="path3079"
       inkscape:connector-curvature="0" />
    <path
       style="fill:#fb9d2f"
       d="m 255.65939,447.08051 c -0.76558,-1.5125 -1.96078,-4.55 -2.656,-6.75 -1.7496,-5.53656 -2.80043,-6.67899 -5.04067,-5.48005 -1.005,0.53786 -2.1469,1.985 -2.53757,3.21587 -0.39066,1.23086 -1.83093,3.93134 -3.20061,6.00106 -4.12521,6.23362 -8.62901,4.3818 -9.72547,-3.99883 -0.81621,-6.23853 -2.10949,-9.23805 -3.98308,-9.23805 -0.83979,0 -3.64589,2.94558 -6.23578,6.54574 -3.92052,5.44984 -5.13263,6.49623 -7.23981,6.25 -2.86452,-0.33472 -3.72398,-2.83797 -3.92209,-11.4233 -0.17856,-7.73851 -2.12422,-8.66944 -6.84725,-3.27613 -6.43204,7.34485 -8.12861,8.90369 -9.69042,8.90369 -2.66449,0 -3.79904,-3.91818 -3.43221,-11.85318 0.30904,-6.68505 0.134,-7.64784 -1.44692,-7.95861 -1.0524,-0.20687 -3.58531,1.2935 -6.10571,3.61672 -2.36898,2.18365 -5.3545,4.53075 -6.63451,5.21579 -2.0479,1.096 -2.55645,0.96251 -4.23622,-1.11192 -1.53592,-1.89677 -1.75933,-3.14411 -1.14332,-6.38312 1.11835,-5.88035 1.06968,-11.78998 -0.10039,-12.18992 -0.56025,-0.19151 -3.41794,1.45461 -6.35041,3.65803 -5.54793,4.16863 -9.06422,4.99647 -11.05156,2.60186 -1.25751,-1.5152 -0.82224,-4.52192 1.637,-11.30794 1.66694,-4.59976 1.21936,-7.28771 -1.21352,-7.28771 -0.85795,0 -4.23424,1.35 -7.50287,3 -6.81465,3.44002 -8.52609,3.66925 -9.84181,1.31819 -0.9942,-1.77654 0.23863,-6.31729 3.34731,-12.32882 1.52462,-2.94829 1.53336,-3.37908 0.0977,-4.81477 -1.43569,-1.43569 -2.20929,-1.37305 -8.6462,0.70009 -5.58122,1.79756 -7.37336,2.02462 -8.5132,1.07864 -2.20979,-1.83396 -1.75978,-4.04997 2.03063,-9.99967 1.91093,-2.99951 3.48593,-6.30384 3.5,-7.34295 0.0271,-2.00206 -0.33782,-2.00184 -13.68807,0.008 -3.86003,0.58123 -4.31411,0.41403 -5.41049,-1.99227 -1.09998,-2.41418 -0.8139,-3.11986 3.53492,-8.7199 2.60247,-3.35124 4.48882,-6.72625 4.19189,-7.50005 -0.40045,-1.04306 -2.5629,-1.40649 -8.3713,-1.40649 -11.447446,0 -13.069875,-2.53208 -6.1441,-9.58893 l 4.08728,-4.16464 -7.693335,-3.85372 C 88.1556,323.55003 79.58066,312.78551 74.257518,297.55874 c -4.904064,-14.028 -2.769461,-33.61581 5.69853,-52.29157 4.464739,-9.84677 12.491829,-22.62738 19.938988,-31.74655 3.678644,-4.50456 7.036754,-8.75753 7.462474,-9.45103 1.0396,-1.69356 -7.921324,-16.34825 -21.391726,-34.98402 C 76.058443,155.37916 83.577773,135.5464 107.05534,113.46039 152.74503,70.478813 226.64288,45.687775 268,59.467143 c 8.83796,2.944633 15.55365,7.020031 20.39065,12.374006 4.86892,5.38932 6.0497,8.055249 8.63209,19.489362 1.24217,5.5 2.60016,10.651059 3.01777,11.446809 0.61844,1.17845 4.53378,1.48839 21.10938,1.67098 16.32308,0.17982 22.23004,0.63738 29.85011,2.31225 10.64777,2.34035 21.84489,7.23885 27.10628,11.85841 7.10072,6.23452 11.58985,20.23819 10.65886,33.24994 -0.27573,3.85365 -0.16687,7.21333 0.24191,7.46596 0.40877,0.25264 2.83535,-0.25351 5.39238,-1.12478 3.69658,-1.25955 4.95152,-1.33319 6.12487,-0.35941 2.24275,1.86133 1.80547,4.05488 -1.9987,10.02618 -1.91093,2.99951 -3.48593,6.30384 -3.5,7.34295 -0.0271,2.00206 0.33782,2.00184 13.68807,-0.008 3.86003,-0.58123 4.31411,-0.41403 5.41049,1.99227 1.09998,2.41418 0.8139,3.11986 -3.53492,8.7199 -2.60247,3.35124 -4.48882,6.72625 -4.19189,7.50005 0.40042,1.04346 2.56287,1.40689 8.37127,1.40689 12.19596,0 13.17179,2.45635 4.48138,11.28048 -5.49992,5.58454 -5.66558,5.90112 -3.80887,7.27899 1.24135,0.92122 4.38306,1.44053 8.71482,1.44053 5.66537,0 6.94247,0.31539 7.80528,1.92756 1.5059,2.8138 0.49731,4.47546 -5.54692,9.13855 -7.38166,5.69491 -7.1704,7.37608 1.12357,8.94104 7.22165,1.36262 11.14255,3.77729 10.18508,6.27241 -0.3358,0.8751 -3.1906,3.30769 -6.34399,5.40576 -3.15339,2.09807 -5.91865,4.38457 -6.14501,5.0811 -0.25299,0.77846 2.53898,2.61104 7.24599,4.75609 10.01762,4.56517 10.02534,6.3983 0.049,11.64057 -3.83406,2.01469 -7.11939,4.10817 -7.30072,4.65217 -0.18134,0.54401 2.8428,2.70265 6.7203,4.79697 3.92308,2.11895 7.32844,4.68513 7.67776,5.78575 0.81114,2.55568 -2.40745,5.22514 -7.97097,6.61103 -9.18706,2.28851 -9.35434,3.60306 -1.19902,9.42258 9.48198,6.7662 8.911,9.46372 -2.45632,11.60464 -9.86337,1.85766 -10.14201,2.67056 -3.0344,8.85257 9.13421,7.94469 8.03044,10.88759 -4.43717,11.83051 -4.17547,0.31579 -7.81569,0.93648 -8.08938,1.37932 -0.27368,0.44283 1.46591,2.85439 3.86577,5.35903 6.35867,6.63627 7.46456,9.03471 5.27922,11.44949 -1.52344,1.68338 -2.68019,1.85573 -9.16378,1.36538 C 405.54949,350.58339 405,350.68555 405,352.48251 c 0,1.06737 1.56348,4.39482 3.4744,7.39434 3.84927,6.04206 4.26285,8.0969 2.00661,9.96942 -1.22246,1.01455 -2.98365,1.01012 -9.02153,-0.0227 -4.12639,-0.70584 -7.78293,-1.00295 -8.12564,-0.66024 -0.34271,0.34271 0.81291,3.91667 2.56804,7.94213 4.77067,10.94171 2.93805,12.79517 -8.63085,8.72903 -3.63929,-1.27911 -6.02478,-1.65024 -6.6417,-1.03332 -0.61693,0.61693 -0.20676,3.55406 1.14198,8.17761 2.17416,7.45308 1.77192,10.85172 -1.28434,10.85172 -0.79346,0 -3.92943,-1.21963 -6.96882,-2.71028 -5.16913,-2.53518 -5.63439,-2.60205 -7.20145,-1.03499 -1.49008,1.49007 -1.54021,2.40845 -0.45344,8.30654 1.91932,10.41653 -0.85718,12.04005 -9.92418,5.80305 -7.30306,-5.02362 -8.54316,-4.11566 -8.127,5.95032 0.28371,6.86216 0.11712,7.65288 -1.83208,8.69607 -1.79876,0.96266 -2.76154,0.71969 -5.97651,-1.50829 -2.10778,-1.46069 -4.61558,-3.52129 -5.5729,-4.57911 -0.95731,-1.05781 -2.51834,-1.9233 -3.46895,-1.9233 -2.11566,0 -2.93009,2.77647 -2.94799,10.05 -0.0243,9.86702 -3.64104,10.51146 -11.14552,1.98593 -6.24246,-7.0918 -7.18033,-6.80661 -8.83342,2.68614 -0.63549,3.64924 -1.60872,7.48195 -2.16273,8.51714 -1.83569,3.43001 -5.09367,1.69564 -9.37198,-4.98911 -5.40506,-8.44529 -7.07453,-8.16607 -9.88275,1.6529 -3.38524,11.83653 -6.40891,11.92348 -11.6632,0.33538 -4.11675,-9.07929 -5.4301,-8.60274 -11.05589,4.01162 -2.55094,5.71982 -5.93953,6.54242 -8.23877,2 z m 37.56255,-42.19998 c 24.07616,-5.15017 46.28512,-16.81347 61.65073,-32.3766 4.19251,-4.2464 7.07673,-7.94627 6.68659,-8.57754 -1.00792,-1.63084 -5.54597,-3.73579 -9.65568,-4.47873 -3.17008,-0.57308 -4.5174,-0.0489 -11.36549,4.42155 -10.34152,6.75102 -29.83395,17.20398 -35.96623,19.28717 -2.71048,0.92077 -6.15057,1.67413 -7.64466,1.67413 -4.7842,0 -16.03189,-4.01678 -30.9272,-11.04473 -8.86281,-4.18168 -16.8917,-7.26253 -20.65195,-7.92458 -20.55694,-3.61935 -44.32801,-17.3467 -56.06383,-32.37582 l -2.21578,-2.83757 -9.18023,2.15526 c -5.04913,1.18539 -14.57563,2.7876 -21.17,3.56047 -6.59438,0.77286 -12.16388,1.57931 -12.37667,1.7921 -0.2128,0.2128 2.3876,4.61419 5.77866,9.78089 12.0775,18.40154 35.10665,38.18685 54.99932,47.25223 9.82884,4.47915 24.56686,9.1314 33.38048,10.53699 3.85,0.61399 8.125,1.30717 9.5,1.54038 6.73896,1.14301 35.9236,-0.39658 45.22194,-2.3856 z M 402,268.26758 c 0,-1.74196 -10.65773,-27.90122 -14.82426,-36.38594 -1.47166,-2.99688 -3.19174,-5.60638 -3.82241,-5.79889 -2.00453,-0.61188 -23.81532,32.81724 -25.85911,39.63393 -0.63832,2.12897 -0.46099,2.3239 1.64517,1.80848 13.34832,-3.26662 23.95483,-3.19695 34.54805,0.22694 7.35518,2.3773 8.31256,2.43667 8.31256,0.51548 z m -38.49891,-28.68707 c 2.63698,-3.9875 5.40522,-7.6111 6.15163,-8.05244 0.7464,-0.44134 3.63675,-4.18072 6.42298,-8.30974 2.78623,-4.12901 5.57143,-7.33878 6.18934,-7.13281 0.61791,0.20597 4.07102,6.98285 7.67358,15.05974 3.60256,8.07689 6.91772,14.68525 7.36702,14.68525 2.50458,0 -4.2666,-23.93453 -10.04311,-35.5 -4.36571,-8.74083 -10.31183,-18.5 -11.27178,-18.5 -0.39874,0 -1.96749,1.9125 -3.48612,4.25 -3.55485,5.47168 -9.46522,13.3889 -16.78269,22.48118 l -5.81966,7.23118 3.6523,9.76882 c 3.6416,9.74023 4.30054,11.26882 4.85772,11.26882 0.16185,0 2.4518,-3.2625 5.08879,-7.25 z"
       id="path3077"
       inkscape:connector-curvature="0" />
    <path
       style="fill:#966f35"
       d="m 255.65939,447.08051 c -0.76558,-1.5125 -1.96078,-4.55 -2.656,-6.75 -1.7496,-5.53656 -2.80043,-6.67899 -5.04067,-5.48005 -1.005,0.53786 -2.1469,1.985 -2.53757,3.21587 -0.39066,1.23086 -1.83093,3.93134 -3.20061,6.00106 -4.12521,6.23362 -8.62901,4.3818 -9.72547,-3.99883 -0.81621,-6.23853 -2.10949,-9.23805 -3.98308,-9.23805 -0.83979,0 -3.64589,2.94558 -6.23578,6.54574 -3.92052,5.44984 -5.13263,6.49623 -7.23981,6.25 -2.86452,-0.33472 -3.72398,-2.83797 -3.92209,-11.4233 -0.17856,-7.73851 -2.12422,-8.66944 -6.84725,-3.27613 -6.43204,7.34485 -8.12861,8.90369 -9.69042,8.90369 -2.66449,0 -3.79904,-3.91818 -3.43221,-11.85318 0.30904,-6.68505 0.134,-7.64784 -1.44692,-7.95861 -1.0524,-0.20687 -3.58531,1.2935 -6.10571,3.61672 -2.36898,2.18365 -5.3545,4.53075 -6.63451,5.21579 -2.0479,1.096 -2.55645,0.96251 -4.23622,-1.11192 -1.53592,-1.89677 -1.75933,-3.14411 -1.14332,-6.38312 1.11835,-5.88035 1.06968,-11.78998 -0.10039,-12.18992 -0.56025,-0.19151 -3.41794,1.45461 -6.35041,3.65803 -5.54793,4.16863 -9.06422,4.99647 -11.05156,2.60186 -1.25751,-1.5152 -0.82224,-4.52192 1.637,-11.30794 1.66694,-4.59976 1.21936,-7.28771 -1.21352,-7.28771 -0.85795,0 -4.23424,1.35 -7.50287,3 -6.81465,3.44002 -8.52609,3.66925 -9.84181,1.31819 -0.9942,-1.77654 0.23863,-6.31729 3.34731,-12.32882 1.52462,-2.94829 1.53336,-3.37908 0.0977,-4.81477 -1.43569,-1.43569 -2.20929,-1.37305 -8.6462,0.70009 -5.58122,1.79756 -7.37336,2.02462 -8.5132,1.07864 -2.20979,-1.83396 -1.75978,-4.04997 2.03063,-9.99967 1.91093,-2.99951 3.48593,-6.30384 3.5,-7.34295 0.0271,-2.00206 -0.33782,-2.00184 -13.68807,0.008 -3.86003,0.58123 -4.31411,0.41403 -5.41049,-1.99227 -1.09998,-2.41418 -0.8139,-3.11986 3.53492,-8.7199 2.60247,-3.35124 4.48882,-6.72625 4.19189,-7.50005 -0.40045,-1.04306 -2.5629,-1.40649 -8.3713,-1.40649 -11.447446,0 -13.069875,-2.53208 -6.1441,-9.58893 l 4.08728,-4.16464 -7.693335,-3.85372 C 88.1556,323.55003 79.58066,312.78551 74.257518,297.55874 c -4.904064,-14.028 -2.769461,-33.61581 5.69853,-52.29157 4.464739,-9.84677 12.491829,-22.62738 19.938988,-31.74655 3.678644,-4.50456 7.036754,-8.75753 7.462474,-9.45103 1.0396,-1.69356 -7.921324,-16.34825 -21.391726,-34.98402 C 76.058443,155.37916 83.577773,135.5464 107.05534,113.46039 152.74503,70.478813 226.64288,45.687775 268,59.467143 c 8.83796,2.944633 15.55365,7.020031 20.39065,12.374006 4.86892,5.38932 6.0497,8.055249 8.63209,19.489362 1.24217,5.5 2.60016,10.651059 3.01777,11.446809 0.61844,1.17845 4.53378,1.48839 21.10938,1.67098 16.32308,0.17982 22.23004,0.63738 29.85011,2.31225 10.64777,2.34035 21.84489,7.23885 27.10628,11.85841 7.10072,6.23452 11.58985,20.23819 10.65886,33.24994 -0.27573,3.85365 -0.16687,7.21333 0.24191,7.46596 0.40877,0.25264 2.83535,-0.25351 5.39238,-1.12478 3.69658,-1.25955 4.95152,-1.33319 6.12487,-0.35941 2.24275,1.86133 1.80547,4.05488 -1.9987,10.02618 -1.91093,2.99951 -3.48593,6.30384 -3.5,7.34295 -0.0271,2.00206 0.33782,2.00184 13.68807,-0.008 3.86003,-0.58123 4.31411,-0.41403 5.41049,1.99227 1.09998,2.41418 0.8139,3.11986 -3.53492,8.7199 -2.60247,3.35124 -4.48882,6.72625 -4.19189,7.50005 0.40042,1.04346 2.56287,1.40689 8.37127,1.40689 12.19596,0 13.17179,2.45635 4.48138,11.28048 -5.49992,5.58454 -5.66558,5.90112 -3.80887,7.27899 1.24135,0.92122 4.38306,1.44053 8.71482,1.44053 5.66537,0 6.94247,0.31539 7.80528,1.92756 1.5059,2.8138 0.49731,4.47546 -5.54692,9.13855 -7.38166,5.69491 -7.1704,7.37608 1.12357,8.94104 7.22165,1.36262 11.14255,3.77729 10.18508,6.27241 -0.3358,0.8751 -3.1906,3.30769 -6.34399,5.40576 -3.15339,2.09807 -5.91865,4.38457 -6.14501,5.0811 -0.25299,0.77846 2.53898,2.61104 7.24599,4.75609 10.01762,4.56517 10.02534,6.3983 0.049,11.64057 -3.83406,2.01469 -7.11939,4.10817 -7.30072,4.65217 -0.18134,0.54401 2.8428,2.70265 6.7203,4.79697 3.92308,2.11895 7.32844,4.68513 7.67776,5.78575 0.81114,2.55568 -2.40745,5.22514 -7.97097,6.61103 -9.18706,2.28851 -9.35434,3.60306 -1.19902,9.42258 9.48198,6.7662 8.911,9.46372 -2.45632,11.60464 -9.86337,1.85766 -10.14201,2.67056 -3.0344,8.85257 9.13421,7.94469 8.03044,10.88759 -4.43717,11.83051 -4.17547,0.31579 -7.81569,0.93648 -8.08938,1.37932 -0.27368,0.44283 1.46591,2.85439 3.86577,5.35903 6.35867,6.63627 7.46456,9.03471 5.27922,11.44949 -1.52344,1.68338 -2.68019,1.85573 -9.16378,1.36538 C 405.54949,350.58339 405,350.68555 405,352.48251 c 0,1.06737 1.56348,4.39482 3.4744,7.39434 3.84927,6.04206 4.26285,8.0969 2.00661,9.96942 -1.22246,1.01455 -2.98365,1.01012 -9.02153,-0.0227 -4.12639,-0.70584 -7.78293,-1.00295 -8.12564,-0.66024 -0.34271,0.34271 0.81291,3.91667 2.56804,7.94213 4.77067,10.94171 2.93805,12.79517 -8.63085,8.72903 -3.63929,-1.27911 -6.02478,-1.65024 -6.6417,-1.03332 -0.61693,0.61693 -0.20676,3.55406 1.14198,8.17761 2.17416,7.45308 1.77192,10.85172 -1.28434,10.85172 -0.79346,0 -3.92943,-1.21963 -6.96882,-2.71028 -5.16913,-2.53518 -5.63439,-2.60205 -7.20145,-1.03499 -1.49008,1.49007 -1.54021,2.40845 -0.45344,8.30654 1.91932,10.41653 -0.85718,12.04005 -9.92418,5.80305 -7.30306,-5.02362 -8.54316,-4.11566 -8.127,5.95032 0.28371,6.86216 0.11712,7.65288 -1.83208,8.69607 -1.79876,0.96266 -2.76154,0.71969 -5.97651,-1.50829 -2.10778,-1.46069 -4.61558,-3.52129 -5.5729,-4.57911 -0.95731,-1.05781 -2.51834,-1.9233 -3.46895,-1.9233 -2.11566,0 -2.93009,2.77647 -2.94799,10.05 -0.0243,9.86702 -3.64104,10.51146 -11.14552,1.98593 -6.24246,-7.0918 -7.18033,-6.80661 -8.83342,2.68614 -0.63549,3.64924 -1.60872,7.48195 -2.16273,8.51714 -1.83569,3.43001 -5.09367,1.69564 -9.37198,-4.98911 -5.40506,-8.44529 -7.07453,-8.16607 -9.88275,1.6529 -3.38524,11.83653 -6.40891,11.92348 -11.6632,0.33538 -4.11675,-9.07929 -5.4301,-8.60274 -11.05589,4.01162 -2.55094,5.71982 -5.93953,6.54242 -8.23877,2 z m 37.56255,-42.19998 c 53.14089,-11.36746 94.4571,-53.5156 104.79761,-106.90779 1.00435,-5.18584 2.42332,-9.80201 3.15327,-10.25817 0.72995,-0.45615 3.68968,-0.55472 6.57718,-0.21903 3.2047,0.37256 5.25,0.22518 5.25,-0.37831 0,-0.54376 -2.73717,-7.01822 -6.08261,-14.38769 -5.07932,-11.18896 -6.47256,-15.51637 -8.44679,-26.23585 -2.71526,-14.74305 -6.25837,-26.15433 -11.22837,-36.16318 -4.30751,-8.67468 -10.28315,-18.5 -11.25148,-18.5 -0.39874,0 -1.96749,1.9125 -3.48612,4.25 -3.55852,5.47734 -9.46757,13.39192 -16.80381,22.50703 l -5.84077,7.25702 2.9711,7.74298 c 3.87459,10.09752 6.16924,17.97587 6.16727,21.17447 -9.4e-4,1.54109 -3.19689,7.36472 -7.98981,14.55899 -8.8381,13.26616 -8.83796,13.30219 0.0503,13.43922 2.50738,0.0387 5.37221,0.66502 6.36629,1.3919 1.7384,1.27115 1.72844,1.6339 -0.26068,9.4998 -6.97342,27.57616 -26.68544,51.44833 -52.66448,63.77915 -15.1666,7.19875 -23.31827,8.91176 -42,8.82596 -18.34428,-0.0842 -25.68476,-1.6052 -39.90261,-8.26791 -11.39174,-5.33835 -19.73099,-11.15468 -28.5063,-19.88213 l -7.40891,-7.3685 -8.9871,2.10992 c -4.94291,1.16046 -14.3825,2.74226 -20.97687,3.51513 -6.59438,0.77286 -12.16388,1.57931 -12.37667,1.7921 -0.2128,0.2128 2.3876,4.61419 5.77866,9.78089 12.0775,18.40154 35.10665,38.18685 54.99932,47.25223 9.82884,4.47915 24.56686,9.1314 33.38048,10.53699 3.85,0.61399 8.125,1.30717 9.5,1.54038 6.73896,1.14301 35.9236,-0.39658 45.22194,-2.3856 z"
       id="path3075"
       inkscape:connector-curvature="0" />
    <path
       style="fill:#494948"
       d="m 256.63635,446.58051 c -0.77536,-1.2375 -2.18256,-4.64459 -3.12711,-7.57131 -2.70063,-8.36808 -5.2294,-8.02077 -10.41758,1.43076 -4.97637,9.06569 -8.2845,8.28141 -9.98416,-2.367 -0.54934,-3.44166 -1.27482,-6.70416 -1.61217,-7.25 -1.54454,-2.49912 -4.72116,-0.66215 -9.60779,5.55597 -3.19494,4.06548 -5.75778,6.43064 -6.75917,6.23779 -1.78343,-0.34346 -2.82987,-4.0292 -3.01006,-10.60195 -0.12795,-4.66747 -1.53744,-8.18426 -3.28015,-8.18426 -0.60031,0 -3.91095,3.02037 -7.35698,6.71194 -5.67643,6.0809 -6.42893,6.57631 -8.00377,5.26931 -1.47763,-1.22632 -1.65024,-2.58407 -1.15122,-9.05532 0.85469,-11.08339 -1.55621,-12.73393 -8.82007,-6.03833 -6.12748,5.64811 -7.99768,6.47799 -10.02651,4.44916 -1.14932,-1.14933 -1.48371,-2.60855 -1.08804,-4.74802 0.31418,-1.69881 0.86657,-5.44159 1.22752,-8.31729 0.9028,-7.19251 -0.79564,-7.65458 -8.70998,-2.36959 -9.86736,6.58917 -12.30382,5.17517 -8.83344,-5.12649 2.32911,-6.91384 1.92657,-10.77537 -1.12324,-10.77537 -1.1052,0 -4.74353,1.38015 -8.08516,3.067 -9.36759,4.72875 -11.10951,2.54885 -6.22082,-7.78498 4.11551,-8.69947 0.72675,-11.31553 -9.58319,-7.39805 -8.86022,3.36661 -10.31761,0.93685 -4.56326,-7.60787 6.20694,-9.21677 4.16,-12.11827 -6.71372,-9.51656 -5.48237,1.31175 -6.93292,1.36365 -8.22157,0.29417 -2.20439,-1.82948 -2.0976,-2.14664 3.01095,-8.94251 6.45817,-8.59127 6.0049,-9.49423 -5.07566,-10.1112 -10.948944,-0.60964 -11.920835,-2.00679 -5.58717,-8.03186 2.24794,-2.13841 4.07578,-4.24355 4.06186,-4.67808 -0.0139,-0.43454 -3.12654,-2.28519 -6.91693,-4.11256 -19.262284,-9.28648 -31.397219,-33.98824 -28.088906,-57.1775 2.627151,-18.41474 11.927243,-38.22443 26.535021,-56.52102 3.847865,-4.81955 7.551755,-9.50593 8.230855,-10.4142 1.00837,-1.34864 0.85002,-2.37676 -0.86373,-5.60808 -2.82914,-5.33441 -13.607995,-21.78818 -18.292946,-27.92391 -4.848254,-6.34961 -5.733696,-8.76888 -5.706423,-15.59152 0.04426,-11.07063 6.24295,-22.65325 19.260539,-35.98942 18.0078,-18.44853 35.60362,-30.817041 60.86783,-42.785427 25.29329,-11.982162 43.46536,-17.27382 69.41486,-20.213418 18.12565,-2.053301 38.22437,2.262586 49.62681,10.656591 8.33319,6.134539 11.31234,11.270526 14.50755,25.010679 1.45589,6.260656 3.05411,11.634565 3.5516,11.942035 0.49749,0.30746 10.46582,0.70472 22.15185,0.88279 14.8779,0.2267 23.34576,0.804 28.24733,1.92578 27.98992,6.40579 38.58627,19.0261 37.26189,44.37912 -0.54369,10.40794 -0.25665,10.73705 6.79473,7.79079 7.11485,-2.97277 8.27815,0.26142 2.94338,8.18311 -6.20694,9.21677 -4.16,12.11827 6.71372,9.51656 5.48237,-1.31175 6.93292,-1.36365 8.22157,-0.29417 2.20439,1.82948 2.0976,2.14664 -3.01095,8.94251 -6.45817,8.59127 -6.0049,9.49423 5.07566,10.1112 11.4485,0.63746 11.98177,1.87343 4.08284,9.46303 -3.07056,2.95032 -5.58284,6.06225 -5.58284,6.91541 0,2.44764 3.34254,3.62156 10.31181,3.62156 6.78396,0 9.26293,1.33867 8.09845,4.37325 -0.34333,0.89471 -0.91359,1.63171 -1.26725,1.63778 -0.35365,0.006 -3.11801,2.21986 -6.14301,4.91953 -4.91596,4.38727 -5.34072,5.07245 -4,6.45239 0.825,0.84914 4.59722,2.19293 8.38271,2.98618 10.5083,2.20204 10.85267,4.52067 1.51401,10.19361 -7.69023,4.67157 -7.71681,6.46566 -0.14672,9.90262 11.67443,5.3004 11.96624,6.36864 2.89884,10.61178 -6.80985,3.18672 -9.22459,5.18225 -8.22603,6.79797 0.32725,0.52949 3.4962,2.58516 7.04213,4.56816 3.54592,1.98299 6.69337,4.00387 6.99434,4.49084 1.62892,2.63565 -2.11731,5.23109 -9.36397,6.48748 -7.52168,1.30407 -8.03899,4.98212 -1.31365,9.33999 2.62991,1.70412 5.63733,4.04392 6.68316,5.19954 1.68094,1.85742 1.7294,2.27323 0.41779,3.58485 -0.81605,0.81604 -4.29281,1.97852 -7.72616,2.58329 -6.57166,1.15758 -9.68433,3.13236 -8.41268,5.33729 0.41593,0.72118 3.11873,3.1717 6.00623,5.4456 5.03528,3.96526 6.58252,7.14628 4.19396,8.62248 -0.58082,0.35897 -4.06832,0.7932 -7.75,0.96497 -3.68168,0.17176 -7.20832,0.35462 -7.83697,0.40635 -3.19723,0.26308 -2.083,3.58225 3.14007,9.35393 8.02954,8.87293 7.52567,10.02992 -4.42415,10.15858 -6.98504,0.0752 -7.59696,0.25041 -7.88268,2.2569 -0.17829,1.25202 1.28378,4.57543 3.44456,7.82979 2.97058,4.47402 3.53131,6.0031 2.68602,7.32464 -1.15567,1.8068 -3.41849,1.92916 -12.57081,0.67978 -6.96029,-0.95015 -7.06012,-0.61602 -2.71161,9.07599 4.47053,9.96397 3.07859,11.30088 -7.60453,7.30381 -5.06733,-1.89593 -5.79705,-1.95476 -7.17354,-0.57826 -1.37649,1.37649 -1.32416,2.29832 0.51447,9.0622 1.7829,6.55888 1.85886,7.68585 0.58906,8.73969 -1.16879,0.97001 -2.6202,0.65426 -7.32159,-1.5928 -3.2251,-1.54146 -6.56556,-2.53337 -7.42324,-2.20425 -2.28855,0.8782 -3.0007,5.09404 -1.84654,10.93125 1.75006,8.851 -0.36174,9.92745 -8.34326,4.2528 -2.70755,-1.925 -5.69593,-3.5 -6.64084,-3.5 -2.86627,0 -4.07951,3.7101 -3.34276,10.22215 0.64236,5.67767 -0.24409,8.77785 -2.50987,8.77785 -0.45065,0 -3.40229,-2.26026 -6.55919,-5.02279 -3.1569,-2.76253 -6.22059,-4.8645 -6.80819,-4.67103 -2.11113,0.69508 -3.53915,5.30638 -3.55363,11.4752 -0.0115,4.88377 -0.37874,6.42107 -1.65066,6.90915 -2.22115,0.85234 -4.24701,-0.5719 -8.22894,-5.78516 -1.85067,-2.42295 -3.95322,-4.74567 -4.67234,-5.1616 -2.28064,-1.31909 -4.23392,1.9706 -5.44965,9.17828 -1.83818,10.89796 -4.4661,11.58331 -9.9186,2.58673 -1.80791,-2.98304 -3.92722,-5.95495 -4.70959,-6.60425 -2.21985,-1.84232 -5.02847,1.40856 -6.4176,7.42814 -1.27553,5.52732 -3.40728,9.66733 -4.97784,9.66733 -0.53041,0 -2.56086,-3.1702 -4.51212,-7.04488 -5.28724,-10.49906 -7.45445,-10.37272 -12.48774,0.72795 -3.06498,6.75967 -4.99673,7.82807 -7.35331,4.06693 z M 292.5,406.34908 C 346.47023,394.33801 388.25174,352.57314 398.98439,299.9071 400.09298,294.46718 401,289.74953 401,289.42343 c 0,-0.32611 2.89844,-0.59292 6.44098,-0.59292 3.54254,0 6.66374,-0.36042 6.93599,-0.80093 0.27225,-0.44051 -2.42141,-7.30301 -5.98592,-15.25 -5.30817,-11.83444 -6.82455,-16.43957 -8.37987,-25.44907 -1.04442,-6.05 -3.24565,-15.11569 -4.89161,-20.14598 -4.70354,-14.37472 -16.42749,-36.35402 -19.39154,-36.35402 -0.71325,0 -2.10023,1.36007 -3.08218,3.02238 -2.51672,4.26048 -15.48324,21.54889 -20.45902,27.27826 l -4.1692,4.80063 2.37762,4.69937 c 2.42488,4.79278 5.9741,15.88337 7.109,22.21419 0.57025,3.18097 -0.14233,4.68733 -7.50217,15.85918 -4.47274,6.7894 -7.89209,12.97023 -7.59855,13.73518 0.35168,0.91648 2.16436,1.39547 5.31509,1.40446 6.81466,0.0195 9.28138,0.87223 9.28138,3.20864 0,6.99885 -7.43869,25.57344 -14.50496,36.21921 -12.51043,18.84778 -34.4916,34.16921 -56.99504,39.727 -13.32498,3.29094 -33.29007,3.09367 -46.71212,-0.46155 -17.29553,-4.58122 -32.873,-13.76757 -45.10869,-26.60153 -3.4003,-3.56656 -6.66698,-6.10542 -7.85566,-6.10542 -1.11916,0 -4.65447,0.67881 -7.85623,1.50847 -3.20177,0.82966 -12.23683,2.31501 -20.07793,3.30076 -9.46838,1.19034 -14.4017,2.22776 -14.68875,3.0889 -0.80666,2.42 13.16776,21.46801 22.81674,31.10064 20.43691,20.40227 46.51283,33.80201 74.98264,38.53165 10.96817,1.82212 41.45765,1.22308 51.5,-1.01185 z"
       id="path3073"
       inkscape:connector-curvature="0" />
    <path
       style="fill:#3d4142"
       d="m 256.66759,446.1427 c -0.79645,-1.54671 -2.0203,-4.73003 -2.71968,-7.07407 -2.46204,-8.25172 -6.48466,-8.10057 -10.64702,0.40009 -4.64084,9.47782 -8.48355,9.05909 -9.74813,-1.06224 -0.79698,-6.37878 -3.17296,-10.04268 -5.84707,-9.01653 -0.97724,0.37501 -3.83933,3.5722 -6.3602,7.10488 -6.18061,8.66136 -7.58032,8.03046 -9.02257,-4.06681 -0.60147,-5.04501 -1.31818,-7.19783 -2.66333,-8 -1.57689,-0.94036 -2.65697,-0.20257 -7.543,5.15249 -8.42445,9.23315 -10.90475,8.12325 -9.57593,-4.2851 0.71383,-6.66564 -0.21853,-9.4649 -3.15252,-9.4649 -0.75183,0 -3.8807,2.27645 -6.95305,5.05878 -3.08478,2.79359 -6.33589,4.91669 -7.26059,4.74145 -2.2142,-0.41961 -2.67537,-4.91916 -1.18875,-11.59837 0.91436,-4.10811 0.90858,-5.62425 -0.0257,-6.75 -1.86583,-2.24818 -3.59056,-1.78135 -9.92638,2.6868 -8.82378,6.2227 -11.31503,3.72323 -7.05677,-7.08005 2.09951,-5.32651 1.86614,-7.53706 -0.95509,-9.04694 -1.27879,-0.68438 -3.68702,-10e-4 -9.04395,2.56618 -10.46092,5.01326 -10.84362,4.22228 -4.92555,-10.18039 0.70117,-1.70639 0.99036,-3.84389 0.64265,-4.75 -0.78999,-2.05868 -5.66642,-2.11035 -11.19496,-0.11862 -8.88707,3.20168 -9.94392,1.48115 -4.56182,-7.42652 5.99666,-9.92481 4.13857,-12.47259 -6.99262,-9.58821 -3.40628,0.88265 -6.81251,1.36719 -7.5694,1.07674 -2.26375,-0.86868 -1.57418,-4.02896 1.87384,-8.58772 6.74722,-8.92074 6.41309,-8.04777 3.86884,-10.10798 -1.94615,-1.5759 -3.38294,-1.76279 -9.54672,-1.24176 -6.49431,0.54897 -7.33133,0.41648 -7.9756,-1.26247 -0.55107,-1.43606 0.46679,-3.00775 4.34183,-6.70429 2.78391,-2.65566 5.06165,-5.01548 5.06165,-5.24405 0,-0.22857 -3.28012,-1.97213 -7.28917,-3.87459 -12.449639,-5.90786 -21.571627,-17.02284 -26.317984,-32.06799 -2.775523,-8.79794 -2.639483,-27.6143 0.263889,-36.5 6.447618,-19.73279 17.182427,-38.34764 29.593265,-51.31664 2.0625,-2.15526 3.75,-4.43488 3.75,-5.06582 0,-1.7557 -3.57472,-8.1175 -10.666027,-18.98191 -3.541212,-5.4254 -6.184515,-10.11842 -5.874006,-10.42893 0.310508,-0.31051 2.921542,0.37722 5.802297,1.52829 2.880756,1.15107 8.837736,2.85205 13.237736,3.77996 4.4,0.92791 10.475,2.37616 13.5,3.21833 3.025,0.84218 7.1875,1.74398 9.25,2.00401 2.0625,0.26003 3.75,0.96152 3.75,1.55888 0,0.59735 0.6257,0.23039 1.39045,-0.81547 1.19619,-1.63589 1.7571,-1.7345 4.01473,-0.70586 2.25349,1.02676 2.90478,0.9152 4.60955,-0.78957 2.38372,-2.38372 6.25361,-2.57407 8.41384,-0.41384 0.86429,0.86428 1.57143,1.12224 1.57143,0.57324 0,-0.549 1.40743,-1.7003 3.12762,-2.55845 3.31094,-1.65171 6.92271,-1.28059 10.34489,1.06298 1.08487,0.74294 2.77237,1.3508 3.75,1.3508 2.15858,0 2.36979,-2.55873 0.27749,-3.36163 -0.825,-0.31658 -1.5,-1.21287 -1.5,-1.99176 0,-0.96605 1.74257,-1.63388 5.48258,-2.10117 6.49231,-0.81116 7.40655,-0.4163 6.76818,2.92315 -0.36911,1.93085 -1.40213,2.76435 -4.43983,3.58232 -3.28639,0.88493 -3.75559,1.31085 -2.76242,2.50754 0.65801,0.79285 1.77415,1.44155 2.48032,1.44155 0.7916,0 1.08338,0.76691 0.76092,2 -0.29241,1.11819 -0.0307,2 0.59362,2 0.61415,0 1.11663,-0.64956 1.11663,-1.44346 0,-0.79391 1.35,-2.24093 3,-3.21561 3.29635,-1.9472 3.66009,-3.55255 1.66924,-7.36714 -1.77085,-3.39309 -1.06483,-5.11118 1.80443,-4.39104 1.26948,0.31862 2.60879,0.0928 2.97625,-0.50172 0.36746,-0.59457 1.34688,-1.08103 2.17648,-1.08103 1.10507,0 1.32113,0.60161 0.80809,2.25 -0.68779,2.20983 -0.66334,2.21701 1.3696,0.40204 2.2199,-1.9819 4.19591,-1.50438 4.19591,1.01397 0,1.0007 0.55922,1.33337 1.58179,0.94098 0.86998,-0.33385 1.76998,-0.60699 2,-0.60699 0.23001,0 0.41821,-0.65389 0.41821,-1.45308 0,-0.7992 -1.575,-2.20047 -3.5,-3.11394 -1.925,-0.91348 -3.5,-1.98409 -3.5,-2.37914 0,-0.39505 1.57603,-1.20198 3.5023,-1.79316 2.87438,-0.88218 3.6549,-0.80219 4.35348,0.4461 1.21578,2.17248 5.42205,0.74393 4.68132,-1.58989 -0.30056,-0.94699 0.0819,-2.58121 0.85,-3.6316 1.11873,-1.52995 1.68491,-1.67041 2.8467,-0.70622 1.66956,1.38561 2.7662,0.65302 2.7662,-1.84791 0,-1.03522 1.22947,-2.1641 3.04694,-2.79768 1.67582,-0.58419 4.21151,-1.97821 5.63486,-3.09782 1.42336,-1.11962 3.38723,-2.03566 4.36417,-2.03566 0.97693,0 2.82874,-1.2375 4.11514,-2.75 1.28639,-1.5125 3.60176,-3.31441 5.14528,-4.00425 1.54351,-0.68984 2.57368,-1.63078 2.28927,-2.09098 -0.61004,-0.98705 4.74085,-5.15477 6.61815,-5.15477 1.88322,0 14.78619,-12.75018 14.78619,-14.61111 0,-0.86687 0.86764,-1.80302 1.92808,-2.08033 2.10955,-0.55166 9.21395,-10.31939 11.52012,-15.83883 0.79736,-1.90835 1.92271,-3.46973 2.50077,-3.46973 0.59265,0 1.05103,-2.15122 1.05103,-4.932609 0,-4.054356 -0.3561,-5.045637 -2,-5.56739 -2.11268,-0.670539 -2.68474,-2.958773 -1,-4 1.94727,-1.203477 0.96341,-2.571717 -1.64511,-2.287849 -1.45481,0.158317 -2.84231,-0.274651 -3.08333,-0.962151 -0.24103,-0.6875 0.27427,-1.25 1.14511,-1.25 0.87083,0 1.58333,-0.661563 1.58333,-1.47014 0,-0.808578 1.79653,-2.496078 3.9923,-3.75 4.17686,-2.385261 5.28287,-4.77986 2.2077,-4.77986 -0.99,0 -2.3325,-0.5325 -2.98333,-1.183333 -1.74506,-1.745052 -2.73523,-0.146418 -1.11701,1.803413 1.23516,1.488276 1.15059,1.594121 -0.78328,0.980334 -1.52643,-0.484469 -2.50299,-0.157266 -3.3002,1.105755 -0.80486,1.275133 -1.28415,1.432385 -1.65755,0.543831 -0.28891,-0.6875 -1.59505,-1.25 -2.90254,-1.25 -1.30748,0 -2.95744,-0.621106 -3.66657,-1.380235 -0.93768,-1.003789 -1.9631,-1.124068 -3.7597,-0.441002 -1.7835,0.678086 -2.75668,0.571452 -3.5001,-0.383517 -0.56634,-0.727512 -2.26722,-2.114435 -3.77972,-3.082051 -1.5125,-0.967615 -2.75,-2.486818 -2.75,-3.376005 0,-0.889188 -0.65281,-2.116314 -1.45068,-2.726947 -1.24983,-0.95653 -1.1919,-1.423153 0.41847,-3.370343 1.6845,-2.036829 2.02156,-2.107692 3.41193,-0.717325 1.2318,1.231801 1.92308,1.305273 3.42949,0.364505 2.66121,-1.661959 16.03196,3.560089 23.59259,9.214267 7.44635,5.568717 10.13301,10.343231 13.26697,23.576971 1.40951,5.951922 2.89499,11.183511 3.30106,11.625761 0.40608,0.44224 11.04149,0.94837 23.63425,1.12473 19.53861,0.27363 24.06899,0.63376 30.89592,2.45599 17.03237,4.54624 26.52767,11.26602 30.54312,21.6152 2.02716,5.22468 2.32356,7.71215 2.29382,19.25 -0.0188,7.2875 0.0854,13.25 0.23155,13.25 0.14613,0 2.36531,-0.9 4.93151,-2 9.62879,-4.12738 11.11192,-2.28804 5.56182,6.89768 -5.99666,9.92481 -4.13857,12.47259 6.99262,9.58821 3.40628,-0.88265 6.81251,-1.36719 7.5694,-1.07674 2.26375,0.86868 1.57418,4.02896 -1.87384,8.58772 -6.74722,8.92074 -6.41309,8.04777 -3.86884,10.10798 1.94615,1.5759 3.38294,1.76279 9.54672,1.24176 6.41831,-0.54255 7.3362,-0.4038 7.95245,1.20213 0.52102,1.35775 -0.6997,3.22655 -4.84184,7.41236 -8.09279,8.17813 -7.29467,11.0389 3.07972,11.0389 3.42002,0 6.93002,0.27314 7.8,0.60699 3.11663,1.19596 1.56974,4.28539 -4.47443,8.93627 -8.05436,6.19769 -7.93472,8.40839 0.55622,10.27756 12.65022,2.78479 13.23449,4.33929 3.99901,10.6398 -3.29946,2.25092 -5.99901,4.7556 -5.99901,5.56598 0,0.83679 3.24051,3.07799 7.5,5.18714 4.125,2.04255 7.5,4.29255 7.5,5 0,0.70744 -3.2625,2.99573 -7.25,5.08509 -4.8273,2.52938 -7.25,4.38871 -7.25,5.56408 0,1.14385 2.46329,3.15077 6.9976,5.70117 4.43151,2.49258 6.99847,4.56824 7,5.66024 0.003,1.98528 -4.80331,4.77568 -8.22543,4.77568 -3.13591,0 -6.77217,2.68086 -6.77217,4.99283 0,1.16437 2.30041,3.49308 6.04631,6.12067 4.52333,3.17294 5.97167,4.76097 5.75,6.30458 -0.24531,1.70818 -1.48023,2.27732 -7.17437,3.30647 -6.86948,1.24157 -9.62194,2.55885 -9.62194,4.6049 0,0.5965 2.8081,3.62754 6.24022,6.73564 5.49904,4.97989 6.07837,5.84611 4.87755,7.293 -1.00559,1.21167 -3.05103,1.64191 -7.80596,1.64191 -6.86234,0 -10.31181,1.17194 -10.31181,3.50339 0,0.78817 2.25,3.75518 5,6.59338 3.22298,3.32633 5,6.02723 5,7.59949 0,2.39362 -0.14004,2.43393 -7.50258,2.15974 -5.90222,-0.21981 -7.85428,0.0723 -9.15135,1.36936 -1.5317,1.5317 -1.35033,2.15114 2.55427,8.72355 2.31168,3.89113 3.89321,7.57612 3.51451,8.18886 -0.70733,1.14448 -11.33144,0.711 -14.53591,-0.59309 -0.92244,-0.37539 -2.29498,0.0142 -3.1848,0.90403 -1.41831,1.41831 -1.25413,2.23214 1.76539,8.7511 4.73064,10.21315 3.84348,11.42752 -5.6988,7.80069 -9.81628,-3.73096 -10.97197,-2.52025 -8.20414,8.59474 2.41955,9.7164 1.57169,10.72003 -5.87383,6.95293 -2.98349,-1.5095 -6.25882,-2.58388 -7.27852,-2.3875 -3.11394,0.59969 -4.20981,4.20553 -3.14915,10.3619 0.94917,5.50923 0.57544,8.47743 -1.06742,8.47743 -0.48131,0 -3.65147,-1.86428 -7.0448,-4.14285 -6.08563,-4.0864 -6.19799,-4.11724 -8.24593,-2.26389 -1.75348,1.58689 -2.04004,2.89153 -1.84345,8.39285 0.12803,3.58264 0.16837,7.07639 0.0896,7.76389 -0.28747,2.51054 -4.04583,1.14301 -8.93191,-3.25 -5.51113,-4.95498 -6.33434,-5.23402 -8.63979,-2.92857 -1.12073,1.12072 -1.57143,3.5235 -1.57143,8.37755 0,10.90033 -3.04111,11.65178 -9.97697,2.4653 -5.92889,-7.85276 -8.25273,-7.1159 -10.08737,3.19853 -1.5292,8.5972 -1.86913,9.38719 -4.03926,9.38719 -1.3385,0 -3.27359,-2.08098 -6.04431,-6.5 -5.98734,-9.54922 -8.3398,-8.9359 -11.50686,3 -1.46506,5.52146 -2.28682,7.06166 -3.89057,7.29194 -1.64167,0.23571 -2.66148,-1.06412 -5.29587,-6.75 -4.64821,-10.0324 -7.97983,-9.46367 -12.65227,2.15983 -2.46423,6.13018 -4.7489,7.16927 -6.83893,3.11042 z m 34.27938,-39.30138 c 27.59385,-5.62327 51.90523,-18.69132 71.3531,-38.35428 18.87124,-19.07996 32.34297,-44.3663 37.15689,-69.74321 0.84416,-4.45007 1.78824,-8.50105 2.09796,-9.00218 0.30971,-0.50113 3.46156,-0.91114 7.0041,-0.91114 3.54254,0 6.44098,-0.36274 6.44098,-0.80608 0,-0.44335 -2.95224,-7.30585 -6.56053,-15.25 -5.45059,-12.00024 -6.81308,-16.10566 -8.05331,-24.26603 -1.87911,-12.36401 -5.46035,-24.79591 -9.96091,-34.57828 -4.17909,-9.08362 -13.58315,-25.05936 -14.76496,-25.08289 -1.17346,-0.0234 -4.3526,3.82764 -6.59049,7.98328 -1.03664,1.925 -3.4926,5.3 -5.45767,7.5 l -3.57286,4 1.62093,-3.5 c 0.89151,-1.925 2.6588,-4.625 3.92732,-6 1.26851,-1.375 3.03665,-4.24819 3.9292,-6.38486 0.89255,-2.13667 2.45798,-5.06167 3.47875,-6.5 1.90958,-2.69073 2.23405,-6.95734 0.56108,-7.37794 -0.5189,-0.13046 -4.02256,3.8128 -7.78591,8.7628 -3.76335,4.95 -8.2888,10.59112 -10.05655,12.53582 -12.77278,14.05134 -24.34714,26.56158 -25.05177,27.07739 -0.46072,0.33726 -5.41072,5.09501 -11,10.57279 -25.22735,24.72407 -30.70216,29.14158 -64.02787,51.66275 -10.34045,6.98797 -35.90519,22.65125 -36.97012,22.65125 -0.32365,0 -6.11802,2.66776 -12.87639,5.92836 -12.63529,6.09593 -20.06282,9.03158 -22.9155,9.05709 -0.89515,0.008 -2.1492,0.64309 -2.78676,1.41132 -0.63757,0.76822 -1.99011,1.17948 -3.00564,0.91391 -1.01553,-0.26557 -3.22345,0.22924 -4.90648,1.09957 -2.05239,1.06133 -3.27501,1.23462 -3.71281,0.52624 -0.41094,-0.6649 -1.16583,-0.3857 -2.03775,0.75367 -1.19031,1.55544 -1.52055,1.60312 -2.34938,0.3392 -0.80534,-1.2281 -1.52108,-1.26933 -4.34,-0.25 -1.85659,0.67135 -5.26227,1.22064 -7.56819,1.22064 -2.30591,0 -5.07523,0.55123 -6.15404,1.22496 -1.54779,0.96661 -2.21982,0.96661 -3.18643,0 C 141.35951,332.59002 137,332.41531 137,333.82204 c 0,0.54534 0.93981,1.55784 2.08848,2.25 1.14866,0.69216 5.06077,5.75847 8.69359,11.25847 8.46487,12.81564 26.27938,30.75611 38.63614,38.90933 15.44014,10.18769 31.86623,16.97738 49.70849,20.54688 13.68963,2.73873 41.51302,2.76644 54.82027,0.0546 z M 251.24968,364.8292 c -14.85959,-2.0863 -30.4562,-7.98989 -42.22821,-15.98411 -7.61427,-5.17075 -18.67433,-15.74753 -19.47906,-18.6279 -0.51166,-1.83141 0.0464,-2.28757 4.18358,-3.41961 2.62571,-0.71847 5.8472,-2.12997 7.15887,-3.13668 1.31167,-1.00672 3.8627,-1.83039 5.66896,-1.83039 1.80626,0 4.55807,-0.652 6.11514,-1.44889 1.55707,-0.79688 3.50604,-1.70184 4.33104,-2.01101 0.825,-0.30917 2.85,-1.44727 4.5,-2.52911 1.65,-1.08184 4.8,-2.74287 7,-3.69117 8.92917,-3.84889 26.18845,-12.63082 29,-14.75589 1.65,-1.24713 4.575,-3.0743 6.5,-4.06039 1.925,-0.98608 4.625,-2.64678 6,-3.69044 3.17691,-2.41134 10.73783,-7.64399 18.75,-12.97621 3.4375,-2.28771 6.25,-4.4823 6.25,-4.87686 0,-0.39456 1.41459,-1.30333 3.14354,-2.01949 1.72894,-0.71615 4.16475,-2.23324 5.4129,-3.37132 1.24814,-1.13807 4.12228,-3.64422 6.38696,-5.56922 2.26468,-1.925 5.56637,-4.86792 7.3371,-6.53982 1.77072,-1.6719 4.82973,-4.02335 6.79779,-5.22544 1.96807,-1.20209 4.10183,-3.33464 4.7417,-4.739 0.63987,-1.40437 2.72218,-3.4731 4.62736,-4.59718 1.90518,-1.12408 3.76203,-2.9829 4.12633,-4.13071 0.99984,-3.15022 9.42632,-11.6429 9.42632,-9.50038 0,0.95289 0.40044,1.73253 0.88987,1.73253 1.42694,0 4.8712,8.168 7.76663,18.41842 l 2.68173,9.49389 -8.28824,12.51222 c -5.05809,7.63587 -8.05918,13.10913 -7.7005,14.04384 0.38904,1.01381 1.90842,1.53163 4.49413,1.53163 2.14851,0 5.31263,0.28125 7.03138,0.625 3.9441,0.78882 4.00822,2.45442 0.52249,13.57338 -10.36754,33.07087 -37.88883,58.25286 -71.35905,65.29353 -9.06406,1.90669 -23.92377,2.61103 -31.78876,1.50678 z M 352,218.0754 c 0,-0.55 0.675,-1.5602 1.5,-2.24489 0.83674,-0.69443 1.5,-0.80272 1.5,-0.24489 0,0.55 -0.675,1.5602 -1.5,2.24489 -0.83674,0.69443 -1.5,0.80272 -1.5,0.24489 z M 163,321.34613 c 23.75594,-4.5767 33.3994,-7.60939 48.41528,-15.22573 21.45936,-10.88459 17.87129,-8.72713 48.25966,-29.01797 22.23876,-14.84922 37.70995,-27.2778 43.38664,-34.85411 1.82057,-2.4298 3.93611,-4.41781 4.7012,-4.41781 0.76509,0 2.59395,-1.25968 4.06414,-2.79929 17.98206,-18.83109 20.26842,-21.50537 19.25352,-22.52027 -1.56568,-1.56568 -1.32574,-4.68044 0.36054,-4.68044 2.28178,0 2.94279,-2.0448 1.21844,-3.76915 -1.4363,-1.43631 -1.66804,-1.33838 -2.59357,1.09596 -0.55899,1.47025 -1.47749,2.67319 -2.0411,2.67319 -0.56361,0 -1.02475,1.32682 -1.02475,2.94848 0,3.56347 -4.04469,8.35534 -6.31664,7.48351 -1.04931,-0.40266 -3.99301,1.79977 -9.00156,6.73484 -9.89402,9.74885 -17.67638,16.83112 -18.50691,16.84206 -0.37119,0.005 -3.18764,2.16001 -6.25878,4.78916 -3.07114,2.62915 -8.02114,6.2982 -11,8.15345 -2.97886,1.85524 -9.19555,5.77512 -13.81486,8.71084 -4.61932,2.93571 -9.01962,5.33766 -9.77845,5.33766 -0.75884,0 -4.6294,1.49703 -8.60125,3.32674 -3.97185,1.8297 -11.27155,4.77503 -16.22155,6.54516 -4.95,1.77014 -9.77229,3.64243 -10.71621,4.16064 -1.85303,1.01732 -6.30008,2.22512 -17.28379,4.69421 -9.15913,2.05893 -32.69423,2.27016 -41.5,0.37246 -15.95252,-3.43786 -27.43092,-13.39071 -30.09965,-26.09921 -0.63523,-3.025 -3.36754,-9.91889 -6.07179,-15.31976 l -4.91681,-9.81977 -3.20588,0.68736 c -4.29644,0.92119 -4.3608,0.97682 -5.03608,4.35322 -0.32369,1.61847 -1.80988,4.07516 -3.30263,5.45932 -2.28306,2.11697 -2.50985,2.76277 -1.42801,4.06631 1.06958,1.28877 0.99762,1.66035 -0.42745,2.2072 -0.9743,0.37388 -2.05954,0.0977 -2.51553,-0.64008 -0.62151,-1.00562 -1.858926,-0.67823 -5.498601,1.45476 -3.106344,1.82044 -4.360668,3.08834 -3.704451,3.74456 0.656218,0.65622 1.683454,0.62219 3.033781,-0.10048 C 97.644244,256.41535 99,256.55582 99,258.35551 c 0,0.89444 -1.240437,1.77309 -3,2.125 -3.565567,0.71311 -3.994062,3.35594 -1.025436,6.32456 2.149322,2.14933 3.784784,7.02544 2.35635,7.02544 -0.487246,0 -1.886819,-0.70107 -3.110162,-1.55793 -2.777903,-1.94572 -4.566924,-0.95747 -3.799798,2.09901 0.438491,1.74709 0.08675,2.48039 -1.418973,2.95829 -2.627404,0.83391 -2.585717,3.50063 0.05472,3.50063 1.925624,0 1.957491,0.14165 0.5,2.22251 -2.115795,3.02072 -1.955474,5.04736 0.521657,6.59435 1.622788,1.01345 2.395279,1.03494 3.524166,0.0981 0.795193,-0.65995 1.768682,-0.87703 2.163308,-0.48241 0.394627,0.39463 -0.06884,1.15757 -1.029936,1.69542 -1.214234,0.67952 -1.567443,1.69508 -1.157548,3.32823 0.389188,1.55065 0.0684,2.64216 -0.942826,3.20807 -1.221955,0.68384 -1.354569,1.64763 -0.654067,4.75357 0.645703,2.86296 2.470697,5.41075 6.883705,9.61003 3.30278,3.14282 7.04676,5.95238 8.31995,6.24346 1.27319,0.29109 5.01489,1.31746 8.31489,2.28084 3.3,0.96337 8.25,2.10044 11,2.52682 7.37021,1.14274 26.76587,0.312 36.5,-1.56332 z M 99.240547,295.84408 c -1.830235,-2.93067 -1.510516,-3.56786 0.759453,-1.51357 2.03119,1.8382 2.6202,3.5 1.24055,3.5 -0.4177,0 -1.317702,-0.89389 -2.000003,-1.98643 z M 91,293.33051 c 0,-0.825 -0.648442,-1.5 -1.440983,-1.5 -1.670644,0 -2.798406,1.42728 -1.865164,2.36052 C 88.889009,295.38619 91,294.83674 91,293.33051 z m 105,-37.5 c -1.95837,-1.2656 -3.28218,-1.2656 -2.5,0 0.33992,0.55 1.37898,0.99311 2.30902,0.98469 1.45727,-0.0132 1.48367,-0.14929 0.19098,-0.98469 z m 28,-6.56574 c 0,-1.88111 -2.37728,-4.43426 -4.1288,-4.43426 -1.21744,0 -2.27212,-0.81713 -2.58145,-2 -0.28766,-1.1 -0.9976,-2 -1.57764,-2 -0.58005,0 -1.8608,-0.72958 -2.84612,-1.62128 -1.95649,-1.7706 -5.29833,-1.13645 -4.59426,0.87181 0.24512,0.69914 1.64312,1.11641 3.17406,0.94737 2.55408,-0.28201 2.6927,-0.10491 2.08467,2.66343 -0.5495,2.50184 -0.29008,3.0879 1.6591,3.74815 1.27074,0.43044 2.83901,0.68246 3.48503,0.56005 0.64603,-0.12241 1.46009,0.23936 1.80902,0.80395 0.6622,1.07146 3.51639,1.44547 3.51639,0.46078 z m -41.8962,-2.73046 c -1.28349,-1.28349 -2.58505,-0.2915 -1.63484,1.24598 0.36808,0.59556 1.12735,0.79971 1.68727,0.45366 0.683,-0.42212 0.66575,-0.98146 -0.0524,-1.69964 z m 43.42327,-5.7476 c 0.80664,-1.30517 -1.30385,-3.9562 -3.14951,-3.9562 -1.71973,0 -1.82712,3.65193 -0.12756,4.33772 1.98728,0.80189 2.58898,0.73183 3.27707,-0.38152 z M 193,237.83051 c 0,-0.55 -0.45,-1 -1,-1 -0.55,0 -1,0.45 -1,1 0,0.55 0.45,1 1,1 0.55,0 1,-0.45 1,-1 z m 24.80833,-3.075 c -0.19708,-0.59125 -0.78583,-1.075 -1.30833,-1.075 -0.5225,0 -1.11125,0.48375 -1.30833,1.075 -0.19709,0.59125 0.39166,1.075 1.30833,1.075 0.91667,0 1.50542,-0.48375 1.30833,-1.075 z m -38.30278,-3.93113 c 2.01605,-2.22771 1.93746,-2.4559 -1.1749,-3.41143 -1.64295,-0.50441 -2.32591,-0.17274 -2.81455,1.36682 -1.27305,4.01104 1.10629,5.23046 3.98945,2.04461 z M 235,220.83051 c 0,-0.55 -0.675,-1 -1.5,-1 -0.825,0 -1.5,0.45 -1.5,1 0,0.55 0.675,1 1.5,1 0.825,0 1.5,-0.45 1.5,-1 z M 343.4569,200.96992 C 346.5056,197.1966 349,193.5636 349,192.8966 c 0,-1.99744 -3.44649,-0.70461 -3.85319,1.44539 -0.20689,1.09369 -1.67456,3.15366 -3.26149,4.57772 -1.58692,1.42406 -2.88532,3.12568 -2.88532,3.78138 0,0.65571 -0.675,1.45121 -1.5,1.76779 -1.64188,0.63005 -2.08319,3.36163 -0.5431,3.36163 0.52629,0 3.45129,-3.08727 6.5,-6.86059 z m -0.4647,-8.88941 c -0.004,-0.4125 -1.12929,-1.27016 -2.5,-1.90591 -2.65148,-1.2298 -3.27518,-0.52707 -1.2922,1.45591 1.32938,1.32938 3.8044,1.62308 3.7922,0.45 z m -132.02608,-3.2079 c 1.17374,-0.74235 0.91149,-1.13814 -1.3151,-1.98468 C 205.94966,185.48067 205,185.55402 205,187.24718 c 0,2.28077 3.44568,3.21953 5.96612,1.62543 z m 8.78374,-1.62557 c -0.95295,-0.95296 -2.86349,0.5906 -2.1533,1.7397 0.42212,0.683 0.98146,0.66575 1.69964,-0.0524 0.58876,-0.58876 0.79291,-1.34803 0.45366,-1.68727 z m 4.02097,-1.22903 c 0.22111,-0.66333 -0.52375,-1.1875 -1.6875,-1.1875 -2.07732,0 -2.69993,1.05007 -1.39583,2.35417 0.92647,0.92647 2.59622,0.29467 3.08333,-1.16667 z m 130.28199,-0.6875 c -0.0784,-1.48429 -2.31562,-1.2116 -2.83465,0.3455 -0.28038,0.84112 0.17677,1.21599 1.21948,1 0.9174,-0.19002 1.64422,-0.7955 1.61517,-1.3455 z M 217,184.83051 c 0,-0.55 -0.19844,-1 -0.44098,-1 -0.24254,0 -0.7191,0.45 -1.05902,1 -0.33992,0.55 -0.14148,1 0.44098,1 0.58246,0 1.05902,-0.45 1.05902,-1 z m 123,0 c 0,-0.55 -0.45,-1 -1,-1 -0.55,0 -1,0.45 -1,1 0,0.55 0.45,1 1,1 0.55,0 1,-0.45 1,-1 z m -136.2,-1.2 c 0.66,-0.66 1.2,-1.73686 1.2,-2.39301 0,-2.35772 -3.25375,-2.36903 -7.18455,-0.025 -4.21928,2.51607 -3.78797,3.3961 1.73455,3.53904 1.6775,0.0434 3.59,-0.46105 4.25,-1.12105 z m 144.48975,-1.8 c -0.44352,-1.69601 -0.0307,-2 2.71606,-2 2.7658,0 3.05718,-0.21917 1.99419,-1.5 -1.66328,-2.00413 -6.66679,-1.91782 -7.8155,0.13481 -0.63188,1.1291 -0.41525,2.18599 0.70031,3.41666 2.16801,2.39172 3.03897,2.37308 2.40494,-0.0515 z m 11.42504,-3.75 C 362.20948,174.37414 365,168.11466 365,166.22515 c 0,-0.84562 0.7249,-2.2624 1.6109,-3.14839 1.48119,-1.4812 1.48119,-1.70574 0,-2.78882 -0.886,-0.64785 -1.6109,-1.67035 -1.6109,-2.27222 0,-1.8286 -4.96253,-6.18521 -7.04545,-6.18521 -2.0715,0 -2.63055,1.46418 -0.95455,2.5 1.90607,1.17802 1.08859,3.33593 -1.05172,2.77622 -1.79017,-0.46814 -1.96757,-0.20125 -1.39159,2.09362 0.73269,2.91929 -0.13058,3.2683 -2.89776,1.17152 -1.17567,-0.89084 -1.91692,-2.87083 -2.05095,-5.47842 -0.227,-4.41646 -0.38428,-4.51558 -5.60798,-3.53412 l -3.5,0.6576 2.75,2.19436 c 1.5125,1.20689 2.75,2.75407 2.75,3.43817 0,0.6841 0.675,1.50284 1.5,1.81942 2.09516,0.80399 1.86909,2.60113 -0.59231,4.70864 -1.92496,1.6482 -1.96495,1.93224 -0.5,3.55098 1.91272,2.11354 2.04248,3.77457 0.34231,4.38177 -0.6875,0.24554 -0.93393,0.78661 -0.54762,1.20238 0.99433,1.07017 3.5511,-1.74032 3.95681,-4.34945 0.32733,-2.1051 0.43486,-2.1255 2.71877,-0.51591 l 2.37797,1.67589 -2.2456,1.2018 -2.2456,1.20181 3.0237,2.15307 c 2.16097,1.53874 2.87456,2.72336 2.501,4.15186 -0.75733,2.89604 1.26967,2.45151 3.42536,-0.75121 z m -4.14058,-10.91722 c -0.85148,-2.21892 1.02886,-4.12971 2.55857,-2.6 1.22427,1.22427 0.51516,4.26722 -0.99441,4.26722 -0.50841,0 -1.21229,-0.75025 -1.56416,-1.66722 z M 220,170.77149 c 0,-0.51754 -0.45,-0.94098 -1,-0.94098 -0.55,0 -1,0.70156 -1,1.55902 0,0.85746 0.45,1.2809 1,0.94098 0.55,-0.33992 1,-1.04148 1,-1.55902 z m 159.75701,-3.51731 C 378.77282,166.27 377,167.78087 377,169.60381 c 0,1.52648 0.13153,1.52374 1.69048,-0.0352 0.92976,-0.92977 1.4097,-1.97126 1.06653,-2.31443 z M 367.5,152.81681 c 0,-2.1435 -2.90567,-1.8339 -3.32712,0.35451 -0.25736,1.3364 0.14991,1.74367 1.48631,1.48631 1.01244,-0.19498 1.84081,-1.02335 1.84081,-1.84082 z m -0.74953,-4.7363 c 0.24412,-0.73318 -0.44516,-1.25 -1.66714,-1.25 -1.22833,0 -2.08333,0.64569 -2.08333,1.57332 0,1.83788 3.12044,1.56887 3.75047,-0.32332 z M 272,65.389528 c 0,-0.242541 -0.45,-0.719098 -1,-1.059017 -0.55,-0.339919 -1,-0.141476 -1,0.440983 0,0.582459 0.45,1.059017 1,1.059017 0.55,0 1,-0.198442 1,-0.440983 z M 149.66667,136.16384 c -1.43358,-1.43357 -0.53382,-2.33333 2.33333,-2.33333 3.2057,0 4.02995,1.39079 1.41821,2.39301 -2.03336,0.78028 -2.92579,0.76608 -3.75154,-0.0597 z m -53.921106,-3.19829 c -0.699848,-2.67623 4.769416,-7.78246 6.657436,-6.21554 0.74829,0.62102 1.28793,2.57241 1.19922,4.33643 -0.14735,2.92985 -0.47286,3.2312 -3.763039,3.48368 -2.822445,0.21659 -3.708159,-0.13058 -4.093617,-1.60457 z M 101,131.77149 c 0,-0.51754 -0.45,-0.94098 -1,-0.94098 -0.55,0 -1,0.70156 -1,1.55902 0,0.85746 0.45,1.2809 1,0.94098 0.55,-0.33992 1,-1.04148 1,-1.55902 z m 12.03518,1.12476 c -1.41913,-2.65167 -1.29746,-4.06574 0.34981,-4.06574 1.59144,0 4.81967,4.462 3.8963,5.38538 -1.20923,1.20923 -3.22857,0.58164 -4.24611,-1.31964 z m -6.6901,-1.60887 c -0.75454,-1.96628 0.13832,-2.86909 2.09493,-2.11826 0.87889,0.33726 1.27596,1.23798 0.93614,2.12354 -0.75808,1.97552 -2.27198,1.97289 -3.03107,-0.005 z m 15.29547,-0.30156 c -1.66082,-1.83519 -1.62684,-1.94193 0.8131,-2.55432 1.65644,-0.41574 2.54635,-1.3314 2.54635,-2.62004 0,-2.44554 0.86846,-2.52244 2.60795,-0.23095 1.77884,2.34333 1.76249,6.25 -0.0262,6.25 -0.78002,0 -2.04591,0.24087 -2.8131,0.53527 -0.76718,0.29439 -2.17485,-0.32659 -3.12814,-1.37996 z m 29.60406,-5.13524 c -0.68007,-1.08896 -2.36332,-2.26274 -3.74055,-2.60841 C 145.47129,122.73198 145,121.99889 145,119.3471 c 0,-8.35567 -2.13849,-11.72699 -4.76793,-7.51659 -1.04216,1.66877 -2.33202,2 -7.78829,2 -5.78695,0 -6.8214,-0.30442 -8.99153,-2.64602 -1.34874,-1.45532 -2.45225,-3.25532 -2.45225,-4 0,-1.98808 6.66547,-1.77418 7.7984,0.25026 0.82231,1.46939 1.16518,1.46595 4.07905,-0.0409 3.35802,-1.7365 5.12255,-1.39353 5.12255,0.99565 0,0.79254 0.45,1.44098 1,1.44098 0.55,0 1,-0.85186 1,-1.89301 0,-1.04116 0.67411,-2.15169 1.49801,-2.46785 2.0811,-0.79859 4.13615,2.86152 4.87237,8.67783 0.44554,3.51994 1.42019,5.62745 3.61967,7.82693 1.65547,1.65547 3.00995,3.65033 3.00995,4.43302 0,1.88877 -0.28443,1.79854 -1.75539,-0.55685 z m 10.30753,-1.27007 c -1.82338,-5.91865 -1.50777,-8.05394 1.04563,-7.07411 1.63507,0.62744 1.97796,8.32411 0.37085,8.32411 -0.56727,0 -1.20468,-0.5625 -1.41648,-1.25 z m 7.52333,-1.70336 c -0.92641,-0.57255 -0.81876,-0.93117 0.42247,-1.40748 2.30737,-0.88542 3.50206,-0.79882 3.50206,0.25385 0,1.31108 -2.48692,2.04212 -3.92453,1.15363 z m -16.73964,-5.61386 c -0.7217,-1.88073 1.04795,-3.93166 2.57704,-2.98663 1.6483,1.01871 1.30343,4.55385 -0.44425,4.55385 -0.84227,0 -1.80202,-0.70525 -2.13279,-1.56722 z m 40,-3 c -0.33077,-0.86197 -0.0916,-2.07697 0.53139,-2.7 0.84371,-0.84371 1.13278,-0.44377 1.13278,1.56722 0,3.0087 -0.74874,3.51836 -1.66417,1.13278 z m -79.31855,-1.29905 c 0.01,-0.34855 1.08207,-1.64301 2.3835,-2.87656 2.03983,-1.93347 2.53327,-2.04156 3.57726,-0.78363 0.66607,0.80257 1.03627,1.98353 0.82266,2.62435 -0.39872,1.19616 -6.8145,2.17586 -6.78342,1.03584 z M 155,111.33051 c 0,-0.825 0.7301,-1.5 1.62244,-1.5 1.3288,0 1.39713,0.27149 0.37756,1.5 -0.68469,0.825 -1.41479,1.5 -1.62244,1.5 -0.20766,0 -0.37756,-0.675 -0.37756,-1.5 z m 43.18045,-1.67167 c 0.17575,-1.19442 0.82661,-2.33844 1.44634,-2.54227 1.64844,-0.54215 2.67887,2.90308 1.15708,3.86868 -2.14308,1.35982 -2.93902,0.9543 -2.60342,-1.32641 z m 9.26068,-2.25363 c -1.86571,-1.36992 -1.82457,-1.47034 1.05887,-2.58468 11.78687,-4.55519 12.37441,-4.71561 13.42469,-3.66533 1.60884,1.60884 1.30148,2.67531 -0.77105,2.67531 -2.11859,0 -7.83209,2.6707 -8.69278,4.06332 -0.83124,1.34499 -2.78099,1.1552 -5.01973,-0.48862 z M 228.5,106.83051 c -0.81551,-1.31952 0.38021,-3.19207 1.5691,-2.45729 1.21461,0.75067 1.20672,3.45729 -0.0101,3.45729 -0.51754,0 -1.2191,-0.45 -1.55902,-1 z m 8.90624,-1.1517 c -0.76359,-1.23552 2.38356,-4.09624 3.6472,-3.31527 0.41734,0.25793 0.52356,1.36851 0.23605,2.46797 -0.57281,2.19043 -2.75842,2.66731 -3.88325,0.8473 z M 269,100.77149 c 0,-0.58246 0.45,-0.780899 1,-0.44098 0.55,0.33992 1,0.81648 1,1.05902 0,0.24254 -0.45,0.44098 -1,0.44098 -0.55,0 -1,-0.47656 -1,-1.05902 z M 139,99.830511 c 0,-0.55 0.70156,-1 1.55902,-1 0.85746,0 1.2809,0.45 0.94098,1 -0.33992,0.549999 -1.04148,0.999999 -1.55902,0.999999 -0.51754,0 -0.94098,-0.45 -0.94098,-0.999999 z m 71.63837,-2.5 c 0.31659,-0.825 1.42746,-1.5 2.46862,-1.5 1.04115,0 1.89301,0.675 1.89301,1.5 0,0.92825 -0.94096,1.5 -2.46862,1.5 -1.78348,0 -2.30886,-0.41631 -1.89301,-1.5 z m 19.96794,-0.91644 c 0.33422,-0.870958 1.04702,-1.58356 1.58401,-1.58356 1.31439,0 0.49134,2.272781 -1.0035,2.77106 -0.73075,0.24358 -0.95424,-0.213586 -0.58051,-1.1875 z M 240.5,87.830511 c 0.33992,-0.55 1.06803,-1 1.61803,-1 0.55,0 0.72189,0.45 0.38197,1 -0.33992,0.55 -1.06803,1 -1.61803,1 -0.55,0 -0.72189,-0.45 -0.38197,-1 z M 255,85.271494 c 0,-0.857459 0.45,-1.280902 1,-0.940983 0.55,0.339919 1,1.041476 1,1.559017 0,0.517541 -0.45,0.940983 -1,0.940983 -0.55,0 -1,-0.701558 -1,-1.559017 z m -12,-1.440983 c 0,-0.55 0.45,-1 1,-1 0.55,0 1,0.45 1,1 0,0.55 -0.45,1 -1,1 -0.55,0 -1,-0.45 -1,-1 z m -19.75047,-1.25 c 0.22891,-0.6875 1.26459,-1.414403 2.3015,-1.615339 1.6311,-0.31608 1.70455,-0.147537 0.54469,1.25 -1.5862,1.911254 -3.44015,2.149229 -2.84619,0.365339 z m 23.99102,-1.736431 c -1.77196,-2.837348 -1.6371,-3.013569 2.30613,-3.013569 l 3.54669,0 -1.79669,2.468575 c -2.19291,3.012973 -2.48993,3.052882 -4.05613,0.544994 z M 270,80.830511 c 0,-0.55 0.45,-1 1,-1 0.55,0 1,0.45 1,1 0,0.55 -0.45,1 -1,1 -0.55,0 -1,-0.45 -1,-1 z m -53.5,-8.308807 c -1.1,-0.655156 -2.17335,-1.289543 -2.38522,-1.40975 -0.21188,-0.120206 0.68812,-1.349931 2,-2.732723 1.565,-1.64961 3.48252,-2.520108 5.5762,-2.531443 1.75504,-0.0095 3.4691,-0.467277 3.80902,-1.017277 1.12827,-1.825587 2.5,-1.034933 2.5,1.440983 0,3.442334 1.49766,3.956956 2.85377,0.980607 1.4706,-3.227612 1.50456,-3.094622 -0.95439,-3.737651 -5.14707,-1.34599 3.67603,-5.683939 11.56077,-5.683939 3.12648,0 5.40733,0.405408 5.09787,0.90612 -0.30801,0.498366 -1.34706,0.717514 -2.30902,0.486996 -0.96195,-0.230518 -2.42181,0.01896 -3.24413,0.554395 -1.291,0.840608 -1.23576,1.16317 0.4046,2.362636 1.80429,1.319327 1.73353,1.472033 -1.40851,3.039485 -1.81953,0.907703 -3.96658,1.650368 -4.77123,1.650368 -0.95923,0 -1.28703,0.672898 -0.95196,1.954183 0.57688,2.206005 -3.62777,5.632839 -5.60856,4.571036 -8.93242,-4.788225 -10.88736,-5.075434 -9.94207,-1.460636 0.57949,2.215988 0.48571,2.242374 -2.22714,0.62661 z M 245,67.9375 c 0,-2.110999 2.59033,-3.578871 3.55659,-2.015428 0.94048,1.521728 -0.29622,3.908439 -2.02521,3.908439 C 245.68912,69.830511 245,68.978656 245,67.9375 z"
       id="path3071"
       inkscape:connector-curvature="0" />
    <path
       style="fill:#333534"
       d="m 256.66759,446.1427 c -0.79645,-1.54671 -2.0203,-4.73003 -2.71968,-7.07407 -2.46204,-8.25172 -6.48466,-8.10057 -10.64702,0.40009 -4.64084,9.47782 -8.48355,9.05909 -9.74813,-1.06224 -0.79698,-6.37878 -3.17296,-10.04268 -5.84707,-9.01653 -0.97724,0.37501 -3.83933,3.5722 -6.3602,7.10488 -6.18061,8.66136 -7.58032,8.03046 -9.02257,-4.06681 -0.60147,-5.04501 -1.31818,-7.19783 -2.66333,-8 -1.57689,-0.94036 -2.65697,-0.20257 -7.543,5.15249 -8.42445,9.23315 -10.90475,8.12325 -9.57593,-4.2851 0.71383,-6.66564 -0.21853,-9.4649 -3.15252,-9.4649 -0.75183,0 -3.8807,2.27645 -6.95305,5.05878 -3.08478,2.79359 -6.33589,4.91669 -7.26059,4.74145 -2.2142,-0.41961 -2.67537,-4.91916 -1.18875,-11.59837 0.91436,-4.10811 0.90858,-5.62425 -0.0257,-6.75 -1.86583,-2.24818 -3.59056,-1.78135 -9.92638,2.6868 -8.82378,6.2227 -11.31503,3.72323 -7.05677,-7.08005 2.09951,-5.32651 1.86614,-7.53706 -0.95509,-9.04694 -1.27879,-0.68438 -3.68702,-10e-4 -9.04395,2.56618 -10.46092,5.01326 -10.84362,4.22228 -4.92555,-10.18039 0.70117,-1.70639 0.99036,-3.84389 0.64265,-4.75 -0.78999,-2.05868 -5.66642,-2.11035 -11.19496,-0.11862 -8.88707,3.20168 -9.94392,1.48115 -4.56182,-7.42652 5.99666,-9.92481 4.13857,-12.47259 -6.99262,-9.58821 -3.40628,0.88265 -6.81251,1.36719 -7.5694,1.07674 -2.26375,-0.86868 -1.57418,-4.02896 1.87384,-8.58772 6.74722,-8.92074 6.41309,-8.04777 3.86884,-10.10798 -1.94615,-1.5759 -3.38294,-1.76279 -9.54672,-1.24176 -6.50125,0.54956 -7.33207,0.41749 -7.98937,-1.27002 -0.964483,-2.47619 8.79563,-11.8494 11.29856,-10.85068 2.57555,1.0277 12.94875,2.6511 21.32043,3.33664 4.23596,0.34687 8.09644,1.08067 8.57885,1.63067 0.4824,0.55 3.48583,4.97979 6.67428,9.84398 11.67191,17.80625 31.33037,35.536 50.39833,45.45371 21.46104,11.1624 38.58644,15.20231 64.44342,15.20231 23.31803,0 37.3421,-2.6321 55.4873,-10.41413 41.06438,-17.61148 72.466,-56.40858 80.67304,-99.67255 0.84416,-4.45007 1.78824,-8.50105 2.09796,-9.00218 0.30971,-0.50113 3.46156,-0.91114 7.0041,-0.91114 3.54254,0 6.44098,-0.36274 6.44098,-0.80608 0,-0.44335 -2.95224,-7.30585 -6.56053,-15.25 -5.45059,-12.00024 -6.81308,-16.10566 -8.05331,-24.26603 -2.81975,-18.55316 -9.56647,-36.74694 -19.40141,-52.31946 C 378.79314,192.71877 377,189.14536 377,188.24803 c 0,-1.14094 -0.52618,-1.43118 -1.75,-0.96526 -1.40315,0.53418 -1.50225,0.41665 -0.5,-0.59301 0.6875,-0.69259 1.25,-2.04269 1.25,-3.00023 0,-0.95754 0.52089,-2.06291 1.15752,-2.45637 0.79309,-0.49016 0.97999,-0.0365 0.59362,1.44098 -1.16472,4.4539 1.06505,1.91281 4.10082,-4.67339 3.50362,-7.60119 4.16031,-11.25524 1.64804,-9.17024 -2.03607,1.68978 -2.01364,-0.73681 0.0318,-3.44113 1.45336,-1.92151 1.46888,-1.92151 1.53588,0 0.059,1.69341 0.21328,1.63805 1.20856,-0.43381 1.15014,-2.3942 8.30579,-6.12506 11.74765,-6.12506 3.40518,0 3.1853,2.03356 -0.96207,8.89768 -5.99666,9.92481 -4.13857,12.47259 6.99262,9.58821 3.40628,-0.88265 6.81251,-1.36719 7.5694,-1.07674 2.26375,0.86868 1.57418,4.02896 -1.87384,8.58772 -6.74722,8.92074 -6.41309,8.04777 -3.86884,10.10798 1.94615,1.5759 3.38294,1.76279 9.54672,1.24176 6.41831,-0.54255 7.3362,-0.4038 7.95245,1.20213 0.52102,1.35775 -0.6997,3.22655 -4.84184,7.41236 -8.09279,8.17813 -7.29467,11.0389 3.07972,11.0389 3.42002,0 6.93002,0.27314 7.8,0.60699 3.11663,1.19596 1.56974,4.28539 -4.47443,8.93627 -8.05436,6.19769 -7.93472,8.40839 0.55622,10.27756 12.65022,2.78479 13.23449,4.33929 3.99901,10.6398 -3.29946,2.25092 -5.99901,4.7556 -5.99901,5.56598 0,0.83679 3.24051,3.07799 7.5,5.18714 4.125,2.04255 7.5,4.29255 7.5,5 0,0.70744 -3.2625,2.99573 -7.25,5.08509 -4.8273,2.52938 -7.25,4.38871 -7.25,5.56408 0,1.14385 2.46329,3.15077 6.9976,5.70117 4.43151,2.49258 6.99847,4.56824 7,5.66024 0.003,1.98528 -4.80331,4.77568 -8.22543,4.77568 -3.13591,0 -6.77217,2.68086 -6.77217,4.99283 0,1.16437 2.30041,3.49308 6.04631,6.12067 4.52333,3.17294 5.97167,4.76097 5.75,6.30458 -0.24531,1.70818 -1.48023,2.27732 -7.17437,3.30647 -6.86948,1.24157 -9.62194,2.55885 -9.62194,4.6049 0,0.5965 2.8081,3.62754 6.24022,6.73564 5.49904,4.97989 6.07837,5.84611 4.87755,7.293 -1.00559,1.21167 -3.05103,1.64191 -7.80596,1.64191 -6.86234,0 -10.31181,1.17194 -10.31181,3.50339 0,0.78817 2.25,3.75518 5,6.59338 3.22298,3.32633 5,6.02723 5,7.59949 0,2.39362 -0.14004,2.43393 -7.50258,2.15974 -5.90222,-0.21981 -7.85428,0.0723 -9.15135,1.36936 -1.5317,1.5317 -1.35033,2.15114 2.55427,8.72355 2.31168,3.89113 3.89321,7.57612 3.51451,8.18886 -0.70733,1.14448 -11.33144,0.711 -14.53591,-0.59309 -0.92244,-0.37539 -2.29498,0.0142 -3.1848,0.90403 -1.41831,1.41831 -1.25413,2.23214 1.76539,8.7511 4.73064,10.21315 3.84348,11.42752 -5.6988,7.80069 -9.81628,-3.73096 -10.97197,-2.52025 -8.20414,8.59474 2.41955,9.7164 1.57169,10.72003 -5.87383,6.95293 -2.98349,-1.5095 -6.25882,-2.58388 -7.27852,-2.3875 -3.11394,0.59969 -4.20981,4.20553 -3.14915,10.3619 0.94917,5.50923 0.57544,8.47743 -1.06742,8.47743 -0.48131,0 -3.65147,-1.86428 -7.0448,-4.14285 -6.08563,-4.0864 -6.19799,-4.11724 -8.24593,-2.26389 -1.75348,1.58689 -2.04004,2.89153 -1.84345,8.39285 0.12803,3.58264 0.16837,7.07639 0.0896,7.76389 -0.28747,2.51054 -4.04583,1.14301 -8.93191,-3.25 -5.51113,-4.95498 -6.33434,-5.23402 -8.63979,-2.92857 -1.12073,1.12072 -1.57143,3.5235 -1.57143,8.37755 0,10.90033 -3.04111,11.65178 -9.97697,2.4653 -5.92889,-7.85276 -8.25273,-7.1159 -10.08737,3.19853 -1.5292,8.5972 -1.86913,9.38719 -4.03926,9.38719 -1.3385,0 -3.27359,-2.08098 -6.04431,-6.5 -5.98734,-9.54922 -8.3398,-8.9359 -11.50686,3 -1.46506,5.52146 -2.28682,7.06166 -3.89057,7.29194 -1.64167,0.23571 -2.66148,-1.06412 -5.29587,-6.75 -4.64821,-10.0324 -7.97983,-9.46367 -12.65227,2.15983 -2.46423,6.13018 -4.7489,7.16927 -6.83893,3.11042 z m -5.41791,-81.3135 c -20.89867,-2.9342 -39.37983,-11.76983 -54.8101,-26.20409 -8.16053,-7.63378 -8.30704,-9.73117 -0.79586,-11.39375 2.82904,-0.6262 6.19167,-1.87257 7.4725,-2.7697 1.28084,-0.89713 3.3384,-1.63115 4.57236,-1.63115 2.40672,0 5.65698,-1.27777 17.06142,-6.70732 3.9875,-1.89842 7.25,-3.86589 7.25,-4.37217 0,-0.50628 1.32344,-0.92051 2.94098,-0.92051 1.61754,0 3.2191,-0.45 3.55902,-1 0.33992,-0.55 1.28809,-1 2.10705,-1 0.81896,0 3.82991,-1.48225 6.69099,-3.29389 2.86108,-1.81164 7.80399,-4.5127 10.98424,-6.00234 3.18026,-1.48965 6.02153,-3.33191 6.31393,-4.0939 0.29241,-0.76199 1.8603,-1.65117 3.48422,-1.97596 1.86724,-0.37344 3.28534,-1.46576 3.85785,-2.97157 0.58738,-1.54493 1.99518,-2.59903 4.00906,-3.00181 1.70709,-0.34142 4.32979,-1.86721 5.82823,-3.39064 1.49844,-1.52344 3.28146,-2.77469 3.96227,-2.78056 3.39449,-0.0293 39.46501,-30.59505 53.08526,-44.98389 6.5225,-6.89058 8.5194,-8.46608 9.59699,-7.57176 1.93352,1.60468 5.02697,9.21679 7.63938,18.79837 l 2.24446,8.23205 -8.27109,12.48632 c -5.04708,7.61925 -8.04199,13.08334 -7.68335,14.01795 0.38904,1.01381 1.90842,1.53163 4.49413,1.53163 2.14851,0 5.31263,0.28125 7.03138,0.625 3.9441,0.78882 4.00822,2.45442 0.52249,13.57338 -10.36754,33.07087 -37.88883,58.25286 -71.35905,65.29353 -9.06406,1.90669 -23.92377,2.61103 -31.78876,1.50678 z M 126,331.73348 c -4.675,-0.36534 -9.29323,-0.99331 -10.26273,-1.39549 -0.96951,-0.40218 -2.36839,-0.22858 -3.10864,0.38576 -1.02069,0.8471 -1.96183,0.63251 -3.89499,-0.88812 -1.402,-1.10282 -3.41347,-2.00512 -4.46992,-2.00512 -5.322086,0 -18.621464,-12.17469 -22.769879,-20.8443 -3.483119,-7.27923 -7.49414,-21.47514 -7.492474,-26.51757 0.0036,-10.84798 5.003158,-29.1597 11.162204,-40.8833 7.050856,-13.42114 20.848409,-32.75483 23.375589,-32.75483 1.89221,0 5.68351,6.77263 9.79645,17.5 1.89787,4.95 4.49703,10.94021 5.77592,13.31158 2.09808,3.89035 2.44967,4.14141 3.59882,2.56986 1.04858,-1.43401 1.00152,-2.04234 -0.26634,-3.4433 -0.84695,-0.93588 -1.98758,-3.44231 -2.53473,-5.56986 -0.54715,-2.12756 -1.72565,-5.57071 -2.61888,-7.65145 -1.23751,-2.88272 -1.34634,-4.06089 -0.45723,-4.95 1.76141,-1.76141 1.40036,-3.76683 -0.67818,-3.76683 -2.46654,0 -4.77822,-2.77456 -5.62288,-6.74876 -0.37976,-1.78681 -1.60667,-3.89048 -2.72647,-4.67482 -2.86949,-2.00987 -5.86567,-7.25641 -5.17372,-9.0596 0.37429,-0.9754 -0.003,-1.51682 -1.05632,-1.51682 -0.9011,0 -1.93136,-0.7875 -2.28945,-1.75 -0.3581,-0.9625 -1.54951,-2.98197 -2.64758,-4.4877 -2.199577,-3.01617 -1.60589,-4.80999 0.90284,-2.72793 1.33226,1.10567 2.09188,1.02275 4.6899,-0.51194 3.01673,-1.78203 3.14419,-1.78006 4.73653,0.0731 2.40101,2.79435 8.03216,5.63926 8.03216,4.05793 0,-0.68942 -0.54,-1.79349 -1.2,-2.45349 -0.93333,-0.93333 -0.71111,-1.2 1,-1.2 1.21,0 2.2,0.36537 2.2,0.81194 0,0.44657 1.40327,1.84943 3.11839,3.11747 2.33005,1.72268 3.31202,1.99221 3.88434,1.06617 1.52905,-2.47406 3.49662,-0.37284 3.55919,3.80095 0.0756,5.04446 2.81656,8.57628 6.02991,7.76978 3.22735,-0.81001 4.87339,1.6604 3.57947,5.37213 -0.95517,2.74003 -0.76104,3.20514 2.4087,5.77089 8.44652,6.83704 10.31497,8.97629 9.7447,11.15701 -0.79564,3.04255 1.15122,4.9528 4.43165,4.3483 2.74356,-0.50557 2.74359,-0.50552 0.82427,1.65579 -1.89251,2.13112 -1.89251,2.18171 0,3.61367 1.05566,0.79876 2.65178,1.4666 3.54694,1.4841 1.92868,0.0377 4.45553,2.78204 3.46946,3.76811 -0.37839,0.37839 -1.48456,0.19051 -2.45816,-0.41752 -1.3793,-0.86138 -2.30487,-0.70217 -4.19163,0.72101 l -2.42145,1.82651 2.0881,2.31685 c 1.14845,1.27426 2.36603,3.10434 2.70572,4.06684 0.3397,0.9625 1.30675,1.75 2.14902,1.75 2.21105,0 1.88162,1.64127 -0.69113,3.4433 -2.11338,1.48027 -1.91698,1.5567 4,1.5567 4.70497,0 6.22251,0.34587 6.22251,1.41821 0,0.78002 0.27247,2.12826 0.60549,2.9961 0.50248,1.30943 0.0543,1.46766 -2.63393,0.93 -2.49413,-0.49882 -3.13418,-0.33216 -2.78199,0.72441 0.67211,2.01633 7.68176,3.22488 11.81043,2.03626 1.925,-0.55419 6.425,-1.26873 10,-1.58786 3.575,-0.31914 10.55,-1.72451 15.5,-3.12305 4.95,-1.39855 10.575,-2.88503 12.5,-3.3033 7.42289,-1.61285 37.33228,-18.15515 40.80283,-22.56724 0.97522,-1.23979 2.65604,-2.54236 3.73515,-2.8946 1.07911,-0.35224 3.82441,-2.37352 6.10067,-4.49174 3.41754,-3.18026 4.04697,-4.33092 3.61246,-6.60391 -0.49438,-2.58617 -0.3516,-2.71585 2.36135,-2.14472 3.65955,0.77042 4.07511,0.48457 14.67664,-10.09516 8.42638,-8.40906 8.78471,-8.94638 8.1983,-12.2934 -0.33727,-1.925 -1.25991,-3.99961 -2.05031,-4.61024 -1.6176,-1.2497 -1.93081,-3.38976 -0.49611,-3.38976 0.51754,0 1.23041,0.4683 1.58416,1.04068 0.35375,0.57237 1.57184,0.74593 2.70688,0.38568 1.86013,-0.59038 2.00226,-0.34778 1.44084,2.45932 -0.67475,3.37378 0.67368,4.20384 2.19904,1.35368 1.66108,-3.10376 0.17889,-6.89707 -3.46084,-8.85719 -1.90969,-1.02844 -3.28998,-2.49712 -3.1536,-3.35556 0.25739,-1.62007 0.074,-1.63583 -14.26593,-1.22661 -6.33418,0.18076 -6.91847,0.36837 -6.073,1.95 0.51451,0.9625 1.1792,2.5375 1.47709,3.5 0.7452,2.40782 2.60438,2.20695 2.60438,-0.28138 0,-2.36391 2.24253,-3.50968 4.75,-2.42692 0.9625,0.41562 2.7625,0.65656 4,0.53542 3.19938,-0.31319 2.80012,0.55242 -1.5,3.25207 -4.79349,3.0094 -12.25,4.35705 -12.25,2.21401 0,-0.91063 -0.58223,-1.25701 -1.51273,-0.89994 -0.83201,0.31927 -2.1995,0.0105 -3.03888,-0.68609 -1.34639,-1.11741 -1.24239,-1.57225 0.88302,-3.86188 2.24217,-2.4154 2.31398,-2.82055 1.036,-5.84529 -0.75523,-1.7875 -1.86222,-3.25 -2.45999,-3.25 -0.59776,0 -1.91037,-1.0125 -2.91692,-2.25 -1.7122,-2.10507 -1.72257,-2.36944 -0.16097,-4.10424 1.59185,-1.7684 1.53027,-1.83784 -1.33021,-1.5 -2.66332,0.31456 -2.97937,0.0742 -2.82127,-2.14576 0.314,-4.40901 1.54113,-8.45183 3.11306,-10.25613 2.21977,-2.5479 0.88409,-3.14439 -2.78844,-1.24525 -3.43436,1.77601 -6.00267,1.41435 -6.00267,-0.84523 0,-0.77518 -0.99615,-2.07084 -2.21368,-2.87924 l -2.21367,-1.46983 5.26796,-6.30457 c 2.89739,-3.46751 6.93104,-7.62389 8.96368,-9.2364 2.03264,-1.6125 4.11656,-3.68142 4.63094,-4.59758 0.51437,-0.91615 1.53957,-2.27308 2.27821,-3.01538 0.73864,-0.7423 2.02341,-2.9923 2.85503,-5 3.32108,-8.01771 3.93427,-9.04857 5.64921,-9.49703 0.98028,-0.25635 1.78232,-1.38166 1.78232,-2.50069 0,-1.11903 0.41717,-2.29243 0.92704,-2.60755 0.50988,-0.31512 1.45953,-2.254179 2.11035,-4.309017 0.65081,-2.05484 1.77352,-4.210003 2.49491,-4.789252 0.72139,-0.579249 1.45924,-2.604249 1.63966,-4.5 0.26193,-2.752202 0.89511,-1.235189 3.14193,7.527694 1.54763,6.035985 3.25858,11.510345 3.8021,12.165245 0.69375,0.83592 1.93918,0.91801 4.17952,0.27549 4.32541,-1.24051 27.2959,-1.15831 37.73072,0.13502 15.09928,1.87147 26.43731,5.79657 34.97302,12.10729 3.88868,2.87503 8.71923,12.23949 9.55204,18.51752 0.86835,6.54599 -1.55973,14.3628 -9.40063,30.26383 -10.56134,21.41793 -23.66734,36.73912 -66.77476,78.06109 -18.49614,17.73005 -22.46301,21.06664 -28.1259,23.65707 -2.8875,1.32085 -5.25,2.83836 -5.25,3.37224 0,0.53388 -0.64673,0.97069 -1.43719,0.97069 -0.79045,0 -3.60295,2.01226 -6.25,4.47168 -2.64704,2.45943 -5.31343,4.48443 -5.92531,4.5 -1.09565,0.0279 -7.37745,4.53034 -10.47139,7.50533 -0.87114,0.83764 -2.27707,1.52299 -3.12431,1.52299 -0.84723,0 -3.25991,1.575 -5.36152,3.5 -2.10162,1.925 -4.26667,3.5 -4.81125,3.5 -0.54457,0 -1.9685,0.91913 -3.16428,2.04251 -3.9046,3.66818 -39.30664,20.85414 -49.29863,23.93208 -17.80433,5.48445 -42.3936,8.31648 -60.15612,6.92838 z m 30.87166,-8.46369 c 36.03448,-5.29149 55.55916,-13.56798 97.09582,-41.15884 33.87386,-22.50081 42.34396,-29.40125 66.04613,-53.80659 19.31029,-19.88317 27.18807,-29.09494 35.8464,-41.91648 7.99185,-11.8346 16.82926,-31.54647 18.2439,-40.69306 0.54138,-3.50037 1.24759,-8.04332 1.56935,-10.09544 0.91516,-5.83673 -1.53665,-10.52388 -5.13505,-9.81669 -0.52899,0.10396 -1.42899,-0.40525 -2,-1.13158 -0.57102,-0.72633 -3.21745,-2.34753 -5.88098,-3.60267 -4.45775,-2.10065 -5.31483,-2.1892 -10.78055,-1.11389 -6.00018,1.18047 -8.82099,0.56355 -5.61835,-1.22873 2.1369,-1.19587 2.27366,-3.73394 0.24318,-4.51311 -1.80326,-0.69197 -6.45982,3.45943 -6.48423,5.78081 -0.0211,2.00774 -2.09678,2.91047 -4.96656,2.16 -1.29787,-0.3394 -2.61682,0.0439 -3.34645,0.97254 C 330.14493,125.09071 324,124.2819 324,122.09201 c 0,-1.13235 0.72291,-1.36692 2.88194,-0.93511 3.49248,0.69849 4.51371,-0.0736 2.61231,-1.975 -0.89008,-0.89008 -2.34837,-1.17512 -3.95238,-0.77254 C 323.42138,118.94157 323,118.6978 323,116.93892 c 0,-2.78284 -1.355,-2.6625 -4.40909,0.39159 -1.66602,1.66602 -3.59934,2.49489 -5.79546,2.48469 -4.17835,-0.0194 -4.89855,-0.53026 -8.21815,-5.82917 -1.49692,-2.38946 -2.98643,-4.07972 -3.31002,-3.75613 -0.32359,0.32359 0.15889,1.41404 1.07218,2.42322 0.9133,1.00918 1.66054,2.53184 1.66054,3.38369 0,0.85184 0.68024,2.11336 1.51164,2.80336 0.83141,0.69001 2.41386,3.10761 3.51656,5.37245 3.06411,6.29335 6.35636,11.37577 9.65935,14.91162 1.64731,1.76345 4.03257,4.78127 5.30057,6.70627 1.268,1.925 4.42474,5.525 7.01499,8 5.5428,5.2962 9.65217,15.57943 8.49038,21.24624 -3.41523,16.65831 -12.54072,33.08907 -25.4112,45.75376 -8.12138,7.99153 -19.6505,18.04215 -23.30398,20.31548 -1.49694,0.93144 -4.88042,3.61078 -7.51886,5.95409 -2.63843,2.3433 -10.01876,6.83849 -16.40073,9.98931 -6.38196,3.15082 -12.15569,6.39402 -12.8305,7.20712 -1.34087,1.61565 -11.51344,6.534 -13.5142,6.534 -0.68437,0 -2.31749,0.83138 -3.62916,1.84751 -1.31167,1.01613 -3.73486,2.16753 -5.38486,2.55867 -1.65,0.39114 -4.8,1.54024 -7,2.55356 -13.29746,6.1248 -18.52044,7.65178 -33.24077,9.7182 -10.24058,1.43756 -13.99887,1.54167 -23,0.63712 -22.1939,-2.23033 -34.58499,-10.27219 -38.75488,-25.15206 -2.23514,-7.97589 -7.17144,-19.34134 -12.88976,-29.67771 -1.62027,-2.92877 -7.686,-8.48529 -9.2629,-8.48529 -0.74343,0 -1.35169,0.8449 -1.35169,1.87756 0,2.9413 -2.63156,4.67311 -4.60821,3.03263 -1.3664,-1.13401 -1.817484,-1.0485 -3.000003,0.56869 C 97.626304,231.35625 97,232.64679 97,233.17725 c 0,0.53046 -1.112773,2.4234 -2.472828,4.20652 -1.360056,1.78313 -2.928834,5.27684 -3.486175,7.7638 -0.55734,2.48697 -1.979212,6.15878 -3.159716,8.15958 -3.00158,5.0873 -5.192323,16.66082 -3.417054,18.05202 1.059618,0.83038 0.932375,1.49828 -0.660108,3.46492 -1.380335,1.70464 -1.81395,3.34768 -1.443941,5.47133 1.667239,9.56904 2.445354,12.59706 3.777137,14.69864 0.814345,1.28505 2.290305,4.50405 3.279911,7.15335 3.212437,8.60006 13.015444,16.2834 24.607424,19.28665 13.87386,3.59444 27.03151,4.15816 42.84701,1.83573 z M 91,248.83051 c 0,-0.55 0.45,-1 1,-1 0.55,0 1,0.45 1,1 0,0.55 -0.45,1 -1,1 -0.55,0 -1,-0.45 -1,-1 z M 370,139.41384 c 0,-0.87083 0.7125,-1.58333 1.58333,-1.58333 1.76593,0 1.45839,2.15276 -0.39583,2.77083 C 370.53437,140.81905 370,140.28468 370,139.41384 z M 135.5,246.83051 c 0.33992,-0.55 0.14148,-1 -0.44098,-1 -0.58246,0 -1.05902,0.45 -1.05902,1 0,0.55 0.19844,1 0.44098,1 0.24254,0 0.7191,-0.45 1.05902,-1 z M 157,235.77149 c 0,-0.51754 -0.675,-0.94098 -1.5,-0.94098 -1.54641,0 -1.9867,1.17996 -0.86052,2.30615 0.79893,0.79893 2.36052,-0.10419 2.36052,-1.36517 z m -14,-5.88196 c 0,-0.51754 -0.45,-1.2191 -1,-1.55902 -0.55,-0.33992 -1,0.0835 -1,0.94098 0,0.85746 0.45,1.55902 1,1.55902 0.55,0 1,-0.42344 1,-0.94098 z m 0.89572,-6.97341 c 1.67484,-1.0605 0.6669,-4.43756 -1.14625,-3.84044 -1.39083,0.45804 -2.36199,4.76368 -1.06902,4.73952 0.45075,-0.008 1.44762,-0.41301 2.21527,-0.89908 z M 149,220.77149 c 0,-0.51754 -0.45,-0.94098 -1,-0.94098 -0.55,0 -1,0.70156 -1,1.55902 0,0.85746 0.45,1.2809 1,0.94098 0.55,-0.33992 1,-1.04148 1,-1.55902 z m -14.94718,-11.44098 c -0.0784,-1.48429 -2.31562,-1.2116 -2.83465,0.3455 -0.28038,0.84112 0.17677,1.21599 1.21948,1 0.9174,-0.19002 1.64422,-0.7955 1.61517,-1.3455 z m 169.44718,-36.5 c -0.48625,-1.53204 -0.1797,-2 1.31017,-2 1.06972,0 2.43156,-0.58634 3.02631,-1.30298 0.85081,-1.02516 0.35438,-1.32358 -2.32831,-1.39962 -3.94072,-0.11171 -7.32668,3.48409 -5.24293,5.56784 1.91471,1.91471 3.94474,1.37171 3.23476,-0.86524 z M 284,169.36569 c 0,-1.45709 -2.90052,-3.53518 -4.93426,-3.53518 -1.43441,0 -1.35269,2.31305 0.13426,3.8 1.67356,1.67356 4.8,1.50108 4.8,-0.26482 z m 7.42974,0.57851 c 0.30127,-0.48747 -0.44002,-1.14462 -1.64732,-1.46034 -2.51997,-0.65898 -3.26746,-0.24717 -2.32354,1.28012 0.79932,1.29333 3.21515,1.40297 3.97086,0.18022 z m 3.66598,-7.72903 c 1.15986,-1.39754 1.08641,-1.56608 -0.54469,-1.25 -1.03691,0.20094 -2.07259,0.92784 -2.3015,1.61534 -0.59396,1.78389 1.25999,1.54592 2.84619,-0.36534 z M 277,160.77149 c 0,-0.51754 -0.45,-0.94098 -1,-0.94098 -0.55,0 -1,0.70156 -1,1.55902 0,0.85746 0.45,1.2809 1,0.94098 0.55,-0.33992 1,-1.04148 1,-1.55902 z m -10.91885,-23.09261 c 0.99421,-1.85771 0.91955,-2.06261 -0.5466,-1.5 -0.93397,0.3584 -2.11132,0.65163 -2.61634,0.65163 -0.50501,0 -0.91821,0.675 -0.91821,1.5 0,2.24776 2.76579,1.80615 4.08115,-0.65163 z m 71.45997,-19.9149 c 0.92034,-1.48915 -0.14673,-2.29879 -2.06137,-1.56407 -0.88358,0.33906 -1.32643,1.06965 -0.98412,1.62354 0.81058,1.31154 2.21511,1.28411 3.04549,-0.0595 z M 166.5,221.83051 c -0.33992,-0.55 -0.14148,-1 0.44098,-1 0.58246,0 1.05902,0.45 1.05902,1 0,0.55 -0.19844,1 -0.44098,1 -0.24254,0 -0.7191,-0.45 -1.05902,-1 z m 111.65,-12.95 c 0.22,-0.66 0.72625,-1.16625 1.125,-1.125 1.1957,0.12369 0.96414,1.49529 -0.325,1.925 -0.66,0.22 -1.02,-0.14 -0.8,-0.8 z m 7.85,-7.43197 c 0,-1.375 0.43035,-2.76596 0.95633,-3.09104 0.52598,-0.32507 0.69316,-1.27682 0.37152,-2.115 -0.66189,-1.72486 2.79314,-5.41199 5.07132,-5.41199 1.97927,0 2.92981,1.70444 2.11802,3.79789 -0.60072,1.54916 -0.79396,1.52239 -2.15044,-0.29789 -1.46545,-1.96651 -1.51421,-1.96789 -2.91163,-0.082 -0.84366,1.13851 -1.06853,2.35768 -0.55334,3 0.97082,1.21036 -0.18506,5.02105 -1.8317,6.03873 C 286.41897,203.68961 286,202.96971 286,201.44854 z m -132.75047,0.13197 c 0.63003,-1.89219 3.75047,-2.1612 3.75047,-0.32332 0,0.92763 -0.855,1.57332 -2.08333,1.57332 -1.22198,0 -1.91126,-0.51682 -1.66714,-1.25 z m 78.65475,-10.36534 c -1.15986,-1.39754 -1.08641,-1.56608 0.54469,-1.25 1.03691,0.20094 2.07259,0.92784 2.3015,1.61534 0.59396,1.78389 -1.25999,1.54592 -2.84619,-0.36534 z M 257,188.44714 c 0,-1.81667 3.57461,-2.18404 6,-0.61663 1.33333,0.86167 1.33333,0.97259 0,0.99834 -0.825,0.0159 -2.5125,0.30031 -3.75,0.63195 -1.65413,0.44329 -2.25,0.17484 -2.25,-1.01366 z m 30.70185,-1.24811 c -0.34732,-0.34732 -0.15563,-1.52063 0.42597,-2.60736 1.24764,-2.33124 3.50219,-0.84534 2.53635,1.67162 -0.62508,1.62893 -1.87447,2.02359 -2.96232,0.93574 z m -45.17084,-3.31835 c -0.65025,-1.05212 2.87352,-3.3123 3.76861,-2.41722 0.30942,0.30942 0.32044,1.19359 0.0245,1.96482 -0.61313,1.59778 -2.9155,1.87239 -3.7931,0.4524 z M 246,175.80576 c 0,-0.56361 1.0125,-1.40573 2.25,-1.87138 2.73745,-1.03004 8.75,-0.2598 8.75,1.12092 0,0.5944 -1.38346,0.73825 -3.42202,0.35582 -1.98472,-0.37234 -3.68957,-0.20907 -4.05902,0.38871 -0.82494,1.33479 -3.51896,1.33933 -3.51896,0.006 z m 14.66609,-3.89482 c -0.77682,-3.88408 -3.89547,-4.85105 -6.67642,-2.0701 -2.5985,2.5985 -5.38122,2.22939 -5.80922,-0.77055 -0.41055,-2.87762 -1.28366,-2.82327 -4.18045,0.26022 -2.66905,2.84107 -5.19707,3.48023 -2.65499,0.67126 0.91025,-1.00581 1.65499,-2.16107 1.65499,-2.56726 0,-1.37592 6.49167,-8.56783 7.75,-8.58597 0.6875,-0.01 1.25,-0.82803 1.25,-1.81803 0,-0.99 0.54,-2.34 1.2,-3 1.82312,-1.82312 4.8,-1.46497 4.8,0.57749 0,0.97763 0.71981,2.80517 1.59958,4.06122 1.46612,2.09317 1.46612,2.43121 0,4.05125 -2.15785,2.3844 -2.01545,2.91138 0.65042,2.40697 1.8431,-0.34874 2.44288,0.19909 3.31656,3.0293 0.78577,2.54543 0.75675,3.87872 -0.11024,5.0644 -1.64812,2.25394 -2.1219,2.03147 -2.79023,-1.3102 z m -5.91623,-8.6639 c -0.95295,-0.95296 -2.86349,0.5906 -2.1533,1.7397 0.42212,0.683 0.98146,0.66575 1.69964,-0.0524 0.58876,-0.58876 0.79291,-1.34803 0.45366,-1.68727 z M 380,173.94854 c 0,-0.55 0.45,-1.27811 1,-1.61803 0.55,-0.33992 1,-0.16803 1,0.38197 0,0.55 -0.45,1.27811 -1,1.61803 -0.55,0.33992 -1,0.16803 -1,-0.38197 z m -114,-2.11803 c 0,-0.55 0.47656,-1 1.05902,-1 0.58246,0 0.7809,0.45 0.44098,1 -0.33992,0.55 -0.81648,1 -1.05902,1 -0.24254,0 -0.44098,-0.45 -0.44098,-1 z"
       id="path3069"
       inkscape:connector-curvature="0" />
    <path
       style="fill:#030302"
       d="m 256.44855,444.08051 c -0.86806,-2.0625 -1.82575,-4.9645 -2.1282,-6.44888 -0.74455,-3.65417 -3.6535,-6.14755 -6.22134,-5.33255 -1.13835,0.3613 -3.47285,3.32906 -5.26784,6.6968 -5.02809,9.43367 -6.87708,9.09392 -8.73904,-1.60577 -1.20318,-6.91402 -3.96859,-10.23127 -7.12225,-8.54348 -1.01441,0.5429 -3.74679,3.69915 -6.07195,7.01388 -2.32515,3.31474 -4.71589,5.86439 -5.31274,5.6659 -1.33611,-0.44434 -2.31018,-4.70525 -2.46688,-10.79091 -0.11433,-4.44033 -2.21844,-7.90499 -4.80076,-7.90499 -0.56373,0 -3.76356,2.96839 -7.11073,6.59643 -3.81471,4.13481 -6.53246,6.32035 -7.2828,5.85661 -0.86,-0.53151 -1.01743,-3.07643 -0.55913,-9.03874 0.59183,-7.69939 0.48503,-8.40601 -1.47829,-9.78118 -2.72677,-1.9099 -4.35184,-1.26115 -10.09376,4.02959 -7.5007,6.91132 -9.8059,5.35386 -7.38416,-4.98896 1.64489,-7.02502 1.14514,-9.49665 -2.08408,-10.30713 -1.79438,-0.45036 -3.40985,0.16854 -6.1305,2.34863 -4.93016,3.95059 -8.06736,5.54736 -9.68183,4.92783 -1.38118,-0.53001 -1.21602,-1.66787 1.65984,-11.43574 2.41997,-8.21943 -1.60423,-10.03781 -11.67944,-5.2775 -3.5739,1.68859 -6.72181,3.07016 -6.99534,3.07016 -1.27043,0 -0.2624,-4.53009 2.00267,-9 5.2473,-10.35505 1.66247,-13.35653 -10.82223,-9.06116 -3.14525,1.08212 -5.8837,1.53697 -6.19742,1.02937 -0.6026,-0.97503 1.61546,-5.79934 4.65404,-10.12258 2.45169,-3.48823 2.40465,-7.48677 -0.10386,-8.82929 -1.44597,-0.77386 -3.69921,-0.61953 -8.47703,0.58062 -6.39759,1.60702 -9.5535,1.43304 -9.5535,-0.52666 0,-0.54586 2.025,-3.47863 4.5,-6.51726 7.33885,-9.01013 5.85375,-11.92611 -5.93473,-11.65278 -4.5529,0.10556 -7.66862,-0.25846 -8.09327,-0.94557 -0.68848,-1.11399 3.65101,-6.37858 6.56115,-7.95987 0.88741,-0.4822 4.04625,-0.23661 7.5,0.58311 3.28177,0.77891 10.53244,1.70803 16.11261,2.06472 l 10.14575,0.64853 5.83803,9.10441 c 7.81632,12.18958 25.73098,30.22683 38.2008,38.46222 15.50248,10.23824 31.52348,16.99711 49.478,20.87357 10.48034,2.26276 44.47979,2.50121 55.19166,0.38708 53.03534,-10.4672 96.15747,-51.52152 108.21264,-103.02359 1.36397,-5.82718 2.67019,-11.60737 2.90271,-12.84487 0.38628,-2.05587 0.97683,-2.25 6.84469,-2.25 3.53206,0 6.7014,-0.45219 7.04297,-1.00488 0.34158,-0.55268 -2.35141,-7.64018 -5.98443,-15.75 -5.50697,-12.29295 -6.93226,-16.64072 -8.57041,-26.14352 -3.23575,-18.77031 -9.60376,-35.68835 -19.08248,-50.69684 l -3.86758,-6.12388 4.06488,-8.67422 c 2.23568,-4.77082 4.73879,-10.94354 5.56247,-13.71717 1.21352,-4.08636 2.10242,-5.29465 4.68607,-6.3698 8.15208,-3.39239 9.04038,-2.14711 4.20109,5.88933 -6.26322,10.40111 -4.13559,13.77458 6.93388,10.99402 6.39759,-1.60702 9.5535,-1.43304 9.5535,0.52666 0,0.54586 -2.025,3.47863 -4.5,6.51726 -7.33885,9.01013 -5.85375,11.92611 5.93473,11.65278 4.6206,-0.10713 7.6665,0.25503 8.10444,0.96364 0.40603,0.65697 -1.66629,3.52817 -4.91876,6.81495 -3.09123,3.12381 -5.62041,6.4286 -5.62041,7.34396 0,3.04866 4.0227,4.77771 11.11552,4.77771 9.1194,0 9.51987,1.58246 1.91293,7.55882 -3.23631,2.54258 -6.12753,5.257 -6.42494,6.03203 -1.3345,3.47765 1.85936,5.75618 9.72108,6.93512 2.52187,0.37817 5.36,1.25413 6.30697,1.94657 1.55248,1.1352 1.28655,1.56344 -2.7049,4.35577 -2.43466,1.70324 -5.43916,3.80965 -6.67666,4.68093 -2.58028,1.81667 -2.92427,4.68628 -0.77553,6.46957 0.81096,0.67304 4.07346,2.28001 7.25,3.57106 3.17654,1.29104 5.77553,2.93297 5.77553,3.64874 0,0.71576 -3.15,2.87639 -7,4.80139 -9.25402,4.62701 -9.70072,6.7257 -2.31224,10.86346 8.59325,4.81247 10.08158,6.10708 8.79842,7.65319 -0.61422,0.7401 -3.37194,1.82928 -6.12826,2.4204 -6.88693,1.47698 -8.85792,2.71139 -8.85792,5.54761 0,1.82904 1.57566,3.53866 6.5,7.05259 3.575,2.55107 6.5,5.05994 6.5,5.57528 0,1.25448 -3.42653,2.45919 -9.5,3.34004 -4.9153,0.71288 -8.49319,2.79577 -8.50703,4.95242 -0.004,0.60225 2.80864,3.64297 6.25,6.75715 7.54567,6.82826 7.10958,8.01442 -3.02122,8.21783 C 413.2549,329.35037 410,330.69944 410,333.44715 c 0,0.75446 2.02135,3.42213 4.49189,5.92815 8.2891,8.40813 8.02212,9.9469 -1.65728,9.55186 -3.19875,-0.13054 -6.72012,0.0496 -7.82526,0.40038 -3.09401,0.982 -2.49592,5.30716 1.56845,11.34239 4.52115,6.71352 4.05137,8.64611 -1.83,7.52828 -2.33629,-0.44404 -6.26344,-0.82093 -8.72701,-0.83752 -5.8368,-0.0393 -6.16744,1.59823 -2.0592,10.19875 4.04348,8.46498 3.30591,9.25097 -5.90257,6.29005 -5.71475,-1.83754 -7.33914,-2.03139 -8.55645,-1.02111 -1.9226,1.59561 -1.89713,3.02806 0.19929,11.20854 0.94526,3.68852 1.37235,7.05271 0.94909,7.47597 -0.42326,0.42326 -3.11251,-0.45712 -5.97611,-1.95641 -6.20711,-3.24983 -7.78655,-3.365 -10.1613,-0.74093 -1.43341,1.5839 -1.68345,3.04898 -1.23735,7.25 0.3075,2.89573 0.86784,6.04867 1.2452,7.00653 1.33603,3.39123 -2.33671,3.07872 -7.51174,-0.63917 -5.9256,-4.25712 -8.37274,-4.50409 -10.62157,-1.07193 -1.31582,2.00819 -1.52274,3.85096 -1.00255,8.92831 0.42312,4.1299 0.27857,6.63078 -0.40777,7.05497 -0.58479,0.36141 -3.11318,-1.06883 -5.61865,-3.17831 -6.88642,-5.79806 -7.93679,-6.43473 -9.57729,-5.80521 -2.40439,0.92265 -3.78182,5.09587 -3.78182,11.45781 0,8.94754 -2.34198,9.06306 -8.86151,0.43708 -2.04186,-2.70159 -4.45492,-5.05496 -5.36235,-5.22972 -2.39158,-0.46057 -4.67208,3.64648 -5.90208,10.62929 -0.5906,3.35292 -1.65789,6.58095 -2.37176,7.1734 -1.46192,1.21328 -3.11809,-0.58387 -7.72768,-8.38546 -2.82861,-4.78734 -5.47909,-5.87857 -7.72002,-3.17842 -0.65466,0.78881 -2.19141,4.72631 -3.415,8.75 -1.2236,4.02368 -2.65557,7.27962 -3.18216,7.2354 -0.52659,-0.0442 -2.45385,-2.96361 -4.28279,-6.48755 -3.35752,-6.46914 -4.60787,-7.88885 -6.9724,-7.91675 -2.17782,-0.0257 -5.60509,4.49165 -7.49337,9.87671 -2.13996,6.1028 -4.0857,6.52487 -6.26033,1.35798 z M 253,364.18267 C 234.63864,361.42499 222.21639,356.79099 208.81286,347.69908 201.57771,342.79131 191,333.03019 191,331.26134 c 0,-0.75667 1.87448,-1.82977 4.25,-2.43305 4.39575,-1.11631 14.74228,-4.54667 18.25,-6.05072 1.1,-0.47166 7.16595,-2.99185 13.4799,-5.60042 19.55451,-8.07882 42.30217,-20.69658 57.0201,-31.62811 19.27864,-14.31895 35.55215,-28.21544 52.14145,-44.52535 6.40934,-6.30139 12.12396,-11.14718 12.71503,-10.78188 0.59047,0.36493 2.38992,4.80918 3.99877,9.8761 5.14971,16.21847 5.41843,14.21274 -3.7607,28.06986 -4.452,6.7209 -8.09455,12.94183 -8.09455,13.82429 0,2.07207 2.05274,2.81481 7.83179,2.83376 7.49881,0.0246 7.88253,0.61948 5.85332,9.07451 -6.02827,25.11781 -24.96052,48.46534 -49.18511,60.65583 -15.26462,7.68157 -37.82752,11.81016 -52.5,9.60651 z M 151.5,281.67584 c -9.1961,-4.84803 -11.98628,-6.88511 -13.82955,-10.09682 C 136.7517,269.9782 136,268.085 136,267.37192 c 0,-0.71309 -0.65132,-1.83707 -1.44737,-2.49773 -1.73749,-1.44199 -5.08599,-9.84365 -4.25458,-10.67507 0.32274,-0.32273 1.93298,0.37177 3.5783,1.54335 3.86057,2.74896 9.51562,4.71757 20.34473,7.08231 8.28314,1.80878 8.99873,2.18206 14.25,7.43333 5.77584,5.77584 6.92707,8.5724 3.52892,8.5724 -2.10908,0 -2.69104,1.45488 -1,2.5 2.68933,1.6621 0.24306,2.49789 -7.25,2.47703 -6.42914,-0.0179 -9.13284,-0.48839 -12.25,-2.1317 z M 93,231.94854 c 0,-0.55 0.45,-1.27811 1,-1.61803 0.55,-0.33992 1,-0.16803 1,0.38197 0,0.55 -0.45,1.27811 -1,1.61803 -0.55,0.33992 -1,0.16803 -1,-0.38197 z m 18.29263,-11.618 c -3.46414,-4.34156 -5.30949,-4.3906 -9.40916,-0.25003 -1.76984,1.7875 -2.717581,2.55893 -2.106089,1.7143 0.611489,-0.84464 2.499259,-4.33214 4.195039,-7.75 1.69578,-3.41787 3.44713,-6.2143 3.89189,-6.2143 1.00761,0 5.72812,9.53644 6.55871,13.25 0.80662,3.60633 0.23654,3.46976 -3.13039,-0.74997 z M 294.5,219.83051 c 0.33992,-0.55 0.81648,-1 1.05902,-1 0.24254,0 0.44098,0.45 0.44098,1 0,0.55 -0.47656,1 -1.05902,1 -0.58246,0 -0.7809,-0.45 -0.44098,-1 z m 2,-2.9319 c -1.1,-0.43523 -2.51698,-0.59792 -3.14885,-0.36154 -3.29858,1.23401 -1.89269,-2.50695 3.06376,-8.15242 6.00986,-6.84532 6.39212,-7.55414 4.07395,-7.55414 -1.01902,0 0.0663,-2.19819 3.33275,-6.75 8.51286,-11.86273 13.97664,-21.54094 16.61245,-29.42632 1.41127,-4.22197 2.56594,-8.58291 2.56594,-9.69098 0,-3.62977 1.88144,-3.28077 4.47672,0.83042 1.4016,2.22029 3.01569,4.03688 3.58685,4.03688 1.34504,0 3.93643,6.21047 3.93643,9.43395 0,1.37401 -0.64309,3.97596 -1.42908,5.78212 -0.786,1.80616 -2.46622,6.61703 -3.73382,10.69082 -1.2676,4.07379 -3.43701,8.6229 -4.82091,10.10913 -1.38391,1.48624 -3.67341,4.00314 -5.08778,5.59311 -2.95496,3.32183 -6.26604,5.95521 -13.67841,10.87878 -2.8875,1.91799 -5.25,3.94284 -5.25,4.49967 0,1.17471 -1.6595,1.20441 -4.5,0.0805 z m 4.5,-4.53672 c 0,-0.89459 -0.58629,-1.24363 -1.5,-0.89301 -0.825,0.31659 -1.5,0.97746 -1.5,1.46862 0,0.49115 0.675,0.89301 1.5,0.89301 0.825,0 1.5,-0.66088 1.5,-1.46862 z m 58.06996,-98.83316 c -2.98652,-1.143 -4.90103,-2.25453 -4.25446,-2.47005 1.48793,-0.49598 10.96893,2.61401 11.73175,3.84829 0.84308,1.36412 -1.38494,0.95344 -7.47729,-1.37824 z M 346.5,109.83051 c -0.74125,-1.19936 2.20893,-1.19936 5,0 1.68588,0.72445 1.49883,0.87047 -1.19098,0.92971 -1.75504,0.0387 -3.4691,-0.37971 -3.80902,-0.92971 z m -40.94158,-2.09452 c 0.30779,-0.49801 4.20806,-0.90548 8.66726,-0.90548 4.45921,0 7.92015,0.16453 7.69099,0.36562 -0.97273,0.85355 -16.87651,1.37841 -16.35825,0.53986 z m 19.94158,0.0945 c -1.26064,-0.54172 -1.44548,-0.85943 -0.5,-0.85943 0.825,0 2.4,0.38674 3.5,0.85943 1.26064,0.54172 1.44548,0.85943 0.5,0.85943 -0.825,0 -2.4,-0.38674 -3.5,-0.85943 z m 10.75,0.31067 c 0.9625,-0.25152 2.5375,-0.25152 3.5,0 0.9625,0.25153 0.175,0.45733 -1.75,0.45733 -1.925,0 -2.7125,-0.2058 -1.75,-0.45733 z"
       id="path3067"
       inkscape:connector-curvature="0" />
  </g>
</svg>
